<svg xmlns="http://www.w3.org/2000/svg" viewBox="0 0 39.37 39.37"><defs><style>.cls-2{fill:#007e9d}</style></defs><g id="Слой_2" data-name="Слой 2"><g opacity=".7" id="Слой_6" data-name="Слой 6"><path class="cls-2" d="M19.68 39.37a19.68 19.68 0 1 1 19.69-19.69 19.71 19.71 0 0 1-19.69 19.69zm0-38.18a18.49 18.49 0 1 0 18.5 18.49 18.51 18.51 0 0 0-18.5-18.49z"/><path class="cls-2" d="M19.68 39.37a19.54 19.54 0 0 1-11.39-3.65.6.6 0 0 1 .14-1c4.95-1.83 5.74-3.32 5.74-6.17a2.07 2.07 0 0 0-.47-1.45 7.86 7.86 0 0 1-1.35-3.51c-.06-.3-.11-.33-.38-.46-.72-.35-1.39-.85-1.56-3.14a2.76 2.76 0 0 1 .7-2c-.07-.39-.18-1.07-.29-1.81-.54-3.31-.56-7.37 4.1-9.26 4.06-1.65 7.3-.75 8.32.33a5.34 5.34 0 0 1 3.87 1.72c2 2.31 1.36 7.59 1.14 9a2.68 2.68 0 0 1 .7 2c-.17 2.33-.84 2.83-1.56 3.18-.27.13-.32.15-.38.46a7.86 7.86 0 0 1-1.35 3.51 2.06 2.06 0 0 0-.47 1.45c0 2.85.8 4.34 5.74 6.17a.6.6 0 0 1 .14 1 19.54 19.54 0 0 1-11.39 3.63zm-9.76-4a18.41 18.41 0 0 0 19.52 0C25.3 33.67 24 32 24 28.51a3.2 3.2 0 0 1 .68-2.12 6.77 6.77 0 0 0 1.16-3 1.62 1.62 0 0 1 1-1.32c.37-.18.75-.36.89-2.15 0-.91-.41-1.16-.43-1.17a.64.64 0 0 1-.31-.64c.3-1.59.78-6.53-.81-8.39a4.17 4.17 0 0 0-3.13-1.29h-.16a1 1 0 0 1-.5-.31c-.32-.56-3.15-1.67-7.05-.1s-3.86 4.91-3.36 8c.16 1.14.34 2.13.35 2.13a.6.6 0 0 1-.34.65s-.4.25-.4 1.2c.13 1.74.52 1.93.89 2.11a1.62 1.62 0 0 1 1 1.32 6.75 6.75 0 0 0 1.16 3 3.19 3.19 0 0 1 .68 2.12c.05 3.45-1.25 5.12-5.4 6.82z"/></g></g></svg>