<svg xmlns="http://www.w3.org/2000/svg" viewBox="0 0 49.31 49.45"><defs><style>.cls-1{fill:#003459}</style></defs><g id="Слой_2" data-name="Слой 2"><g id="Лого"><path class="cls-1" d="M24.65 38.45L34.9 24.7l10.24 13.67a24.65 24.65 0 1 0-41 0L14.4 24.65l10.25 13.77"/><path class="cls-1" d="M4.75 39.32l9.62-12.83 10.24 13.73 10.26-13.68 9.59 12.8-.69.88-8.93-11.86-10.23 13.72-10.24-13.74-8.91 11.89-.71-.91z"/><path class="cls-1" d="M6.2 41.1l8.18-10.92 10.24 13.74 10.26-13.69 8.17 10.9-.76.81-7.44-9.88-10.23 13.71-10.24-13.73-7.41 9.89-.77-.83z"/><path class="cls-1" d="M7.69 42.63l6.58-8.77L24.5 47.59l10.26-13.68 6.64 8.86-.82.72-5.85-7.76L24.5 49.45 14.27 35.71l-5.75 7.67-.83-.75z"/></g></g></svg>