<svg xmlns="http://www.w3.org/2000/svg" viewBox="0 0 85.79 86.04"><defs><style>.cls-1{fill:#fff}</style></defs><g id="Слой_2" data-name="Слой 2"><g id="Лого"><path class="cls-1" d="M42.89 66.9L60.72 43l17.81 23.76a42.89 42.89 0 1 0-71.31-.06l17.84-23.8 17.83 23.94"/><path class="cls-1" d="M8.27 68.41L25 46.08l17.82 23.9 17.85-23.81 16.68 22.27-1.19 1.54-15.54-20.63-17.8 23.86L25 49.31 9.5 70l-1.23-1.59z"/><path class="cls-1" d="M10.79 71.51l14.23-19 17.82 23.9L60.69 52.6l14.2 18.96-1.31 1.4-12.94-17.18-17.8 23.86-17.82-23.9-12.89 17.21-1.34-1.44z"/><path class="cls-1" d="M13.38 74.18l11.44-15.27 17.82 23.9L60.48 59l11.55 15.41-1.43 1.26-10.17-13.5-17.79 23.87-17.82-23.9-10 13.34-1.44-1.3z"/></g></g></svg>