<svg xmlns="http://www.w3.org/2000/svg" viewBox="0 0 40.37 40.37"><defs><style>.cls-2{fill:none;stroke:#fff;stroke-miterlimit:10}</style></defs><g id="Слой_2" data-name="Слой 2"><g opacity=".7" id="Слой_6" data-name="Слой 6"><circle class="cls-2" cx="20.18" cy="20.18" r="19.68"/><path class="cls-2" d="M27.88 25a.4.4 0 0 1-.27-.11L23 20.56a.4.4 0 1 1 .55-.58l4.61 4.33a.4.4 0 0 1-.27.69zm-15.39 0a.4.4 0 0 1-.27-.69l4.6-4.31a.4.4 0 1 1 .55.58l-4.61 4.33a.4.4 0 0 1-.27.09z"/><path class="cls-2" d="M30.61 29H9.76a2 2 0 0 1-2-2V13.35a2 2 0 0 1 2-2h20.85a2 2 0 0 1 2 2V27a2 2 0 0 1-2 2zM9.76 12.15a1.2 1.2 0 0 0-1.2 1.2V27a1.2 1.2 0 0 0 1.2 1.2h20.85a1.2 1.2 0 0 0 1.2-1.2V13.35a1.2 1.2 0 0 0-1.2-1.2z"/><path class="cls-2" d="M20.18 22.2a2.24 2.24 0 0 1-1.47-.53l-10.29-9a.4.4 0 1 1 .53-.6l10.29 9a1.5 1.5 0 0 0 1.89 0l10.28-9a.4.4 0 1 1 .53.6l-10.28 9a2.24 2.24 0 0 1-1.48.53z"/></g></g></svg>