<svg xmlns="http://www.w3.org/2000/svg" viewBox="0 0 40.37 40.37"><defs><style>.cls-2{fill:none;stroke:#fff;stroke-miterlimit:10}</style></defs><g id="Слой_2" data-name="Слой 2"><g opacity=".7" id="Слой_6" data-name="Слой 6"><path class="cls-2" d="M27.84 32.78a10.82 10.82 0 0 1-3.71-.78 27.81 27.81 0 0 1-9.35-6.4 27.83 27.83 0 0 1-6.4-9.35c-1-2.78-1-5.05 0-6.1l.46-.48c1-1 2-2.13 3.45-2.08a4.13 4.13 0 0 1 2.91 1.86c2.88 3.58 1.58 4.86.08 6.34l-.27.26c-.25.25-.71 1.38 3.61 5.7a24 24 0 0 0 3.57 3.07c.61.39 1.69 1 2.13.54l.27-.27c1.48-1.5 2.75-2.79 6.33.08a4.13 4.13 0 0 1 1.86 2.91c.06 1.42-1.08 2.5-2.08 3.45l-.48.46a3.3 3.3 0 0 1-2.38.79zM12.18 8.43c-1 0-1.93 1-2.74 1.81l-.44.5c-.78.78-.7 2.82.2 5.2A27 27 0 0 0 15.38 25a27 27 0 0 0 9.05 6.21c2.38.9 4.42 1 5.2.2l.49-.47c.87-.83 1.86-1.76 1.81-2.8a3.43 3.43 0 0 0-1.55-2.28c-3-2.4-3.82-1.55-5.2-.15l-.27.27c-.66.66-1.73.52-3.19-.43a24.74 24.74 0 0 1-3.72-3.2c-3.59-3.58-4.73-5.78-3.61-6.9l.27-.27c1.41-1.38 2.25-2.22-.14-5.2a3.44 3.44 0 0 0-2.28-1.55z"/><circle class="cls-2" cx="20.18" cy="20.18" r="19.68"/></g></g></svg>