<svg xmlns="http://www.w3.org/2000/svg" viewBox="0 0 50 50"><path d="M25 0a25 25 0 1 0 25 25A25 25 0 0 0 25 0zm12 33.18l-3.47 3.45a2 2 0 0 1-.61.44 2.54 2.54 0 0 1-.74.24h-.5a12 12 0 0 1-1.68-.15 12.2 12.2 0 0 1-2.72-.84 22.8 22.8 0 0 1-3.64-2 27.17 27.17 0 0 1-4.34-3.66 28.62 28.62 0 0 1-3-3.45 24.57 24.57 0 0 1-1.93-3 16.39 16.39 0 0 1-1.1-2.53 13.44 13.44 0 0 1-.5-2 6.47 6.47 0 0 1-.1-1.29v-.52a2.54 2.54 0 0 1 .24-.74 2 2 0 0 1 .44-.61l3.5-3.52a1.15 1.15 0 0 1 .84-.37 1 1 0 0 1 .6.2 1.82 1.82 0 0 1 .44.48l2.8 5.3a1.27 1.27 0 0 1 .13.91 1.63 1.63 0 0 1-.44.84l-1.28 1.28a.44.44 0 0 0-.09.17.65.65 0 0 0 0 .2 4.72 4.72 0 0 0 .47 1.25 11.52 11.52 0 0 0 1 1.53 17 17 0 0 0 1.85 2.08 17.3 17.3 0 0 0 2.09 1.87 12.08 12.08 0 0 0 1.53 1 4.06 4.06 0 0 0 .94.38l.33.07h.17a.44.44 0 0 0 .17-.09l1.49-1.52a1.6 1.6 0 0 1 1.1-.42 1.37 1.37 0 0 1 .71.16l5 3a1.31 1.31 0 0 1 .65.86 1.19 1.19 0 0 1-.35 1z" fill="#003459" data-name="Слой 2"/></svg>