<?xml version="1.0" encoding="utf-8"?>
<!-- Generator: Adobe Illustrator 21.0.0, SVG Export Plug-In . SVG Version: 6.00 Build 0)  -->
<svg version="1.1" id="Слой_1" xmlns="http://www.w3.org/2000/svg" xmlns:xlink="http://www.w3.org/1999/xlink" x="0px" y="0px"
	 viewBox="0 0 136 141" style="enable-background:new 0 0 136 141;" xml:space="preserve">
<style type="text/css">
	.st0{fill:#525252;}
</style>
<title>Ресурс 1</title>
<path class="st0" d="M0,0v117l68,24l68-24V0H0z M68,130l-57-20V11h82c0,0-62,11-67,18c18-4,36-11,69-13c-18,4-30,7-30,7s26-4,32,6
	c9,1,10,3,10,3s-24-4-81,9l16-1c0,0,0,0,0,0l0,0c-0.1,0-1.6,0.2-20,6l21-1l-19,5h21l-20,5l22-1l-18,5h21l-20,5h28l-25,4h33l-30,5
	l28-1l-25,5h16l-1,2l-14,3h13v2l-9,2h10l1,3l-8,1h9l3,3l-12,2l20-1l3,2l-17,4h19l-19,4h21l-16,4h15c0,0-16,12-38-11
	c17,18,30,17,30,17s10,6,13,12C70,130,68,130,68,130z M101.5,101.5c-4,4-11,8-11,8h-12c0,0,5-14-7-18c-12,0-12-8-12-8s-1-8,11-10
	c8-8-12-13-12-13s-12-11-11-21c9-1,11-1,11-1l-6,4l7-2l9,1c0,0-11,1-10,4c4.7,1.6,9.1,4,13,7c4-1,18-14,18-14s12,24,10,27
	c-4,3-13,6-13,8c4,2,14,0,15,5c-4,4-6,2-6,2s-13,4-13,6c11,1,12,1,12,1s2,2-7,5c1,6,6,5,6,5S105.5,97.5,101.5,101.5z M114.5,107.8
	c-1.4,2.2-3.3,4.2-5.5,5.7c2-1.7,3.7-3.7,5-6c1.3-2.2,1.9-4.8,1.7-7.4c-0.3-2.5-1.2-4.9-2.8-6.9c-1.5-2.1-3.4-3.9-5.5-5.4l-0.5-0.4
	l0.3-0.6c1.2-2.8,2.3-5.6,3.3-8.5c0.5-1.4,1-2.9,1.5-4.3c0.4-1.4,0.7-2.7,1-4.1c-0.4-2-0.9-4-1.5-6c-0.3-1-0.6-2-1-3
	c-0.4-0.9-0.8-1.8-1.4-2.7L109,58v-0.2c-0.1-1.8-0.1-3.6,0-5.5c0.1-1.8,0.2-3.6,0.3-5.4c0.3-3.6,0.6-7.1,0.9-10.7V36l0.2-0.2
	c0.5-0.5,1-1.1,1.3-1.8c0.3-0.6,0.5-1.3,0.5-2c0-0.7-0.3-1.3-0.7-1.9c-0.5-0.6-1.1-1-1.8-1.4l-0.3-0.2v-0.3c0.1-3.3,0.3-6.5,0.5-9.8
	c0-0.8,0.1-1.6,0.1-2.4c0-0.4,0-0.8,0-1.2c0-0.4-0.1-0.8-0.3-1.1c-0.5-0.6-1.2-1.1-1.9-1.4c-0.7-0.3-1.5-0.6-2.3-0.8
	c0.8,0.2,1.6,0.4,2.3,0.8c0.8,0.3,1.5,0.7,2.1,1.4c0.2,0.4,0.4,0.8,0.4,1.2c0.1,0.4,0.1,0.8,0.1,1.2c0,0.8,0.1,1.6,0.1,2.5
	c0,3.2,0,6.3,0.1,9.4c0.7,0.4,1.3,0.8,1.9,1.4c0.7,0.7,1.1,1.6,1.2,2.6c0,0.9-0.1,1.9-0.6,2.7c-0.3,0.7-0.8,1.4-1.3,2
	c-0.2,3.5-0.5,7-0.6,10.4c-0.1,1.8-0.2,3.5-0.2,5.3c-0.1,1.7-0.1,3.3,0.1,5c0.6,0.9,1,1.8,1.4,2.8c0.4,1,0.8,2.1,1.1,3.1
	c0.6,2.1,1.1,4.2,1.5,6.4v0.2V70c-0.3,1.6-0.7,3.1-1.2,4.6c-0.5,1.5-1,2.9-1.5,4.4c-1,2.7-2.1,5.3-3.3,7.9c1.9,1.6,3.6,3.4,5.1,5.5
	c1.6,2.3,2.5,4.9,2.7,7.7C116.8,102.8,116,105.5,114.5,107.8z"/>
</svg>
