<svg id="Слой_1" xmlns="http://www.w3.org/2000/svg" viewBox="0 0 136 141"><style>.st1{fill:#fff}</style><g id="Слой_2"><g id="Слой_2-2"><path d="M0 0h136v117l-68 24-68-24V0z" fill="#953939"/><path class="st1" d="M11 110V11h82S31 22 26 29c18-4 36-11 69-13-18 4-30 7-30 7s26-4 32 6c9 1 10 3 10 3s-24-4-81 9l16-1s-1 0-20 6l21-1-19 5h21l-20 5 22-1-18 5h21l-20 5h28l-25 4h33l-30 5 28-1-25 5h16l-1 2-14 3h13v2l-9 2h10l1 3-8 1h9l3 3-12 2 20-1 3 2-17 4h19l-19 4h21l-16 4h15s-16 12-38-11c17 18 30 17 30 17s10 6 13 12c-8 4-10 4-10 4l-57-20z"/><path class="st1" d="M78.5 109.5s5-14-7-18c-12 0-12-8-12-8s-1-8 11-10c8-8-12-13-12-13s-12-11-11-21c9-1 11-1 11-1l-6 4 7-2 9 1s-11 1-10 4c4.7 1.6 9.1 4 13 7 4-1 18-14 18-14s12 24 10 27c-4 3-13 6-13 8 4 2 14 0 15 5-4 4-6 2-6 2s-13 4-13 6c11 1 12 1 12 1s2 2-7 5c1 6 6 5 6 5s12 0 8 4-11 8-11 8h-12zm30.5 4c2-1.7 3.7-3.7 5-6 1.3-2.2 1.9-4.8 1.7-7.4-.3-2.5-1.2-4.9-2.8-6.9-1.5-2.1-3.4-3.9-5.4-5.4l-.5-.4.3-.6c1.2-2.8 2.3-5.6 3.3-8.5.5-1.4 1-2.9 1.4-4.3.4-1.4.8-2.8 1-4.3v.3c-.4-2.1-.9-4.1-1.5-6.2-.3-1-.6-2-1-3-.4-.9-.8-1.8-1.3-2.7l-.2-.1v-.2c-.1-1.8-.1-3.6 0-5.5l.3-5.4c.3-3.6.6-7.1.9-10.7V36l.2-.2c.5-.5 1-1.1 1.3-1.8.3-.6.5-1.3.5-2s-.3-1.3-.7-1.9c-.5-.6-1.1-1-1.8-1.4l-.3-.2v-.3c.1-3.3.3-6.5.5-9.8 0-.8.1-1.6.1-2.4v-1.2c0-.4-.1-.8-.3-1.1-.5-.6-1.2-1.1-1.9-1.4-.7-.3-1.5-.6-2.3-.8.8.2 1.6.4 2.3.8.8.3 1.5.7 2.1 1.4.2.4.4.8.4 1.2.1.4.1.8.1 1.2 0 .8.1 1.6.1 2.5 0 3.3 0 6.5.1 9.8l-.3-.5c.8.4 1.6.9 2.2 1.5.7.7 1.1 1.6 1.2 2.6 0 .9-.1 1.9-.6 2.7-.4.8-.9 1.6-1.5 2.3l.2-.5c-.2 3.5-.5 7.1-.7 10.6-.1 1.8-.2 3.5-.2 5.3-.1 1.7-.1 3.5.1 5.2l-.2-.5c.6 1 1.2 2 1.6 3.1.4 1 .8 2.1 1.1 3.1.6 2.1 1.1 4.2 1.5 6.4v.3c-.3 1.6-.7 3.1-1.2 4.6-.5 1.5-1 2.9-1.5 4.4-1.1 2.9-2.3 5.7-3.5 8.5l-.3-1c2.1 1.7 4 3.7 5.6 5.9 1.6 2.3 2.5 4.9 2.7 7.7 0 2.7-.8 5.4-2.3 7.7-1.4 2.2-3.3 4.2-5.5 5.7z"/></g></g></svg>