<svg xmlns="http://www.w3.org/2000/svg" viewBox="0 0 60 60"><path d="M47.6 29.8c-1.9-1.5-4.7-2-4.7-2s2.3-1.4 3.3-2.7c1-1.4 1.4-3.4 1.5-4.5.1-1.1.3-5.6-3.3-8.3-2.7-2-5.9-2.8-10.1-3.1V0h-5.7v9.1h-4.3V0h-5.7v9.1H7.5V15h3.3c.9 0 2.5.1 3.2.9.7.8.8 1.2.8 2.6v23.4c0 .6-.1 1.2-.6 1.7s-1 .6-2.1.6H8.7L7.5 51h11.1v9h5.7v-9.1h4.3V60h5.7v-9.2c1.5-.1 2.8-.2 3.6-.3 1.6-.2 5.3-.6 8.7-3 3.4-2.4 4.2-6.1 4.3-9.9.1-3.8-1.4-6.3-3.3-7.8zM24.3 15.5s1.8-.2 3.6-.1c1.8 0 3.3.1 5.7.8 2.3.7 3.7 2.5 3.8 4.5.1 2.1-.8 3.4-2.4 4.3-1.6.9-3.8 1.4-5.9 1.4-2.1.1-4.7 0-4.7 0l-.1-10.9zM37 42.6c-1.3.7-3.9 1.4-6.4 1.5-2.5.2-6.3.1-6.3.1V32.1s3.6-.2 6.4 0c2.8.2 5.2.9 6.2 1.4 1.1.5 2.9 1.7 2.9 4.5.1 2.7-1.5 3.9-2.8 4.6z" fill="#f28200"/></svg>