<svg xmlns="http://www.w3.org/2000/svg" viewBox="0 0 60 60"><circle cx="30.1" cy="29.9" r="30" fill="#04a7fa"/><path d="M38.9 30.1c-.9-.7-2.2-1-2.2-1s1.1-.6 1.6-1.3c.4-.6.7-1.7.7-2.2.1-.5.1-2.7-1.6-4-1.3-1-2.8-1.4-4.9-1.5v-4.4h-2.7v4.4h-2.1v-4.4H25v4.4h-5.4v2.8h1.6c.4 0 1.2.1 1.5.4.3.4.4.6.4 1.2v11.3c0 .2-.1.6-.2.8-.2.2-.4.2-1 .2h-1.6l-.6 3.3h5.4v4.4h2.7v-4.4h2.1v4.4h2.7v-4.4c.7-.1 1.4-.1 1.7-.1.7-.1 2.6-.3 4.2-1.4 1.6-1.1 2-2.9 2.1-4.7 0-1.9-.7-3.1-1.7-3.8zm-11.1-6.9s.9-.1 1.7-.1c.9 0 1.6.1 2.7.4 1.1.4 1.8 1.2 1.8 2.2 0 1-.4 1.7-1.2 2.1-.7.4-1.8.6-2.8.7-1 .1-2.2 0-2.2 0v-5.3zm6.1 13c-.6.4-1.9.6-3.1.7-1.2.1-3 .1-3 .1v-5.9s1.7-.1 3.1 0c1.4.1 2.5.4 3 .7.5.2 1.4.8 1.4 2.2 0 1.4-.8 1.9-1.4 2.2z" fill="#26dfc8"/></svg>