<svg xmlns="http://www.w3.org/2000/svg" viewBox="0 0 60 60"><circle cx="30" cy="30" r="30" fill="#04a7fa"/><path d="M38.1 33c-.9-.5-1.9-.7-2.9-.7-1.4 0-2.5-1.1-2.5-2.4 0-1.3 1.1-2.4 2.4-2.4 1 0 2-.2 2.9-.8 2.7-1.6 3.7-5 2-7.7-1.6-2.6-5.1-3.5-7.9-1.9-2.7 1.6-3.7 5-2 7.7.7 1.1.3 2.5-.9 3.2-1.1.7-2.6.3-3.3-.7-.5-.9-1.2-1.5-2.2-2-2.8-1.5-6.3-.6-7.9 2.1-1.5 2.7-.6 6.1 2.2 7.7s6.3.6 7.9-2.1v-.1c.7-1.1 2.1-1.5 3.3-.9 1.2.6 1.5 2 .9 3.2-1.5 2.7-.6 6.1 2.2 7.7s6.3.6 7.9-2.1c1.6-2.8.6-6.2-2.1-7.8z" fill="#26dfc8"/></svg>