<svg xmlns="http://www.w3.org/2000/svg" viewBox="0 0 60 60"><path d="M51.5 36.9c-2-1.1-4.2-1.6-6.3-1.6-3 0-5.4-2.3-5.4-5.1S42.1 25 45 25c2.2 0 4.4-.6 6.4-1.7 6-3.5 8-11.1 4.4-16.9C52.2.4 44.4-1.5 38.4 2s-8 11.1-4.4 16.9c1.5 2.4.7 5.6-1.8 7s-5.7.7-7.2-1.7c-1.1-1.8-2.7-3.4-4.7-4.5-6.1-3.4-13.9-1.3-17.3 4.7-3.5 5.9-1.3 13.5 4.8 16.8 6.1 3.4 13.9 1.3 17.3-4.7 0 0 0-.1.1-.1 1.5-2.4 4.6-3.2 7.2-1.8 2.5 1.4 3.4 4.5 2 7-3.6 5.9-1.5 13.4 4.6 16.8s13.9 1.3 17.3-4.7c3.5-5.9 1.4-13.4-4.8-16.8z" fill="#0081c2"/></svg>