<svg xmlns="http://www.w3.org/2000/svg" width="512" height="512"><path d="M503.322 65.085H238.644a8.688 8.688 0 0 0-5.057 1.625L3.621 231.591A8.675 8.675 0 0 0 0 238.644v199.593a8.679 8.679 0 0 0 8.678 8.678h494.644a8.679 8.679 0 0 0 8.678-8.678V73.763a8.678 8.678 0 0 0-8.678-8.678zm-8.678 364.474H17.356V243.101l224.078-160.66h253.21v347.118z" fill="#FFF"/><path d="M468.61 99.797H251.661a8.686 8.686 0 0 0-5.208 1.735L72.894 231.701a8.68 8.68 0 0 0 5.208 15.62H468.61a8.679 8.679 0 0 0 8.678-8.678V108.475a8.678 8.678 0 0 0-8.678-8.678zm-8.678 130.169H104.136l150.417-112.814h205.379v112.814zm0 69.424h-60.746a8.679 8.679 0 0 0-8.678 8.678v52.068a8.679 8.679 0 0 0 17.356 0v-43.39h52.068a8.679 8.679 0 0 0 0-17.356z" fill="#FFF"/></svg>