<svg xmlns="http://www.w3.org/2000/svg" width="512" height="512"><path d="M344.131 104.918c-56.755 0-106.985 28.338-137.383 71.579-21.62-13.893-46.536-21.219-72.453-21.219C60.245 155.279 0 215.523 0 289.574c0 47.844 25.767 92.44 67.246 116.383a8.376 8.376 0 0 0 4.196 1.125h125.706c1.473 0 2.92-.387 4.197-1.125a134.495 134.495 0 0 0 22.365-16.188 170.933 170.933 0 0 0 17.369 15.542 8.393 8.393 0 0 0 5.157 1.771h195.791a8.395 8.395 0 0 0 5.157-1.771C488.375 373.238 512 324.935 512 272.787c0-92.564-75.305-167.869-167.869-167.869zM194.858 390.295h-52.169v-25.18a8.393 8.393 0 0 0-16.786 0v25.18h-52.17a117.201 117.201 0 0 1-24.425-19.632L69.71 350.26a8.39 8.39 0 0 0-.001-11.869 8.391 8.391 0 0 0-11.87 0l-19.251 19.252c-13.923-19.609-21.8-43.341-21.8-68.07h25.18a8.393 8.393 0 0 0 0-16.786H18.005c3.57-24.842 14.942-47.183 31.541-64.486l16.686 16.686a8.368 8.368 0 0 0 5.935 2.459c2.147 0 4.296-.82 5.934-2.459a8.39 8.39 0 0 0 .001-11.869l-16.09-16.09c17.883-13.999 39.897-22.927 63.889-24.63v24.847a8.393 8.393 0 0 0 16.786 0V172.37c19.689 1.384 38.509 7.633 55.1 18.319-13.681 24.291-21.526 52.287-21.526 82.097 0 38.574 12.94 75.037 36.342 104.391a117.824 117.824 0 0 1-17.745 13.118zm261.892-16.758l-23.593-23.594a8.394 8.394 0 0 0-11.871 11.869l23.575 23.576a154.704 154.704 0 0 1-5.759 4.908h-86.577v-25.18a8.393 8.393 0 0 0-16.786 0v25.18h-86.577a153.756 153.756 0 0 1-5.759-4.908l23.574-23.576a8.39 8.39 0 0 0-.001-11.869 8.391 8.391 0 0 0-11.87 0l-23.592 23.594c-.141-.157-.287-.311-.427-.469a8.475 8.475 0 0 0-1.068-1.283c-.055-.054-.121-.09-.178-.143-21.835-25.134-34.724-56.708-36.561-90.462h33.344a8.393 8.393 0 0 0 0-16.786h-33.329c1.945-35.345 16.099-67.48 38.301-92.274l23.509 23.511a8.368 8.368 0 0 0 5.935 2.459c2.147 0 4.296-.82 5.934-2.459a8.39 8.39 0 0 0 .001-11.869l-23.51-23.512c24.794-22.201 56.928-36.355 92.273-38.3v33.329a8.393 8.393 0 0 0 16.786 0V121.95c35.345 1.945 67.479 16.099 92.272 38.3l-23.511 23.512a8.392 8.392 0 0 0 0 11.869c1.639 1.639 3.787 2.459 5.935 2.459s4.296-.82 5.935-2.459l23.51-23.511c22.202 24.794 36.356 56.929 38.301 92.274h-33.328a8.393 8.393 0 0 0 0 16.786h33.344c-1.882 34.609-15.382 66.925-38.232 92.357z" fill="#FFF"/><path d="M391.103 221.619a8.392 8.392 0 0 0-8.763-1.969c-9.556 3.42-57.764 21.016-68.392 31.646-6.341 6.34-9.834 14.771-9.834 23.74 0 8.967 3.493 17.398 9.834 23.738h-.001c6.342 6.342 14.773 9.834 23.741 9.834s17.4-3.492 23.74-9.832c10.629-10.627 28.224-58.838 31.643-68.394a8.398 8.398 0 0 0-1.968-8.763zm-41.547 65.285a16.676 16.676 0 0 1-11.87 4.916c-4.484 0-8.7-1.746-11.87-4.916h-.001a16.675 16.675 0 0 1-4.916-11.869c0-4.486 1.746-8.701 4.917-11.871 4.481-4.482 25.44-13.65 45.023-21.283-7.631 19.58-16.798 40.539-21.283 45.023zm-198.76-18.809c-7.927-7.928-41.023-20.166-50.978-23.728a8.393 8.393 0 0 0-10.73 10.731c3.563 9.955 15.8 43.051 23.727 50.976 5.073 5.074 11.816 7.867 18.991 7.867 7.173 0 13.917-2.793 18.99-7.865 5.073-5.072 7.867-11.818 7.867-18.992-.001-7.172-2.794-13.918-7.867-18.989zm-11.87 26.108l-.001.002a10.006 10.006 0 0 1-7.12 2.949 10 10 0 0 1-7.121-2.951c-2.457-2.455-7.871-14.186-13.204-27.443 13.257 5.332 24.988 10.746 27.445 13.203a10.006 10.006 0 0 1 2.95 7.121 9.998 9.998 0 0 1-2.949 7.119z" fill="#FFF"/></svg>