<svg xmlns="http://www.w3.org/2000/svg" width="512" height="512"><path d="M503.467 187.733h-34.133c-3.413 0-6.827 2.56-7.68 5.973l-23.893 70.827h-23.04l-23.04-38.4c-1.707-2.56-4.267-4.267-7.68-4.267h-34.133v-25.6c0-5.12-3.413-8.533-8.533-8.533H281.6V153.6h25.6c5.12 0 8.533-3.413 8.533-8.533v-51.2c0-5.12-3.413-8.533-8.533-8.533H153.6c-5.12 0-8.533 3.413-8.533 8.533v51.2c0 5.12 3.413 8.533 8.533 8.533h25.6v34.133h-68.267c-2.56 0-4.267.853-5.973 2.56s-2.56 3.413-2.56 5.973v25.6H42.667c-5.12 0-8.533 3.413-8.533 8.533v51.2H17.067V256c0-5.12-3.413-8.533-8.533-8.533S0 250.88 0 256v68.267c0 5.12 3.413 8.533 8.533 8.533s8.533-3.413 8.533-8.533v-25.6h17.067v68.267c0 5.12 3.413 8.533 8.533 8.533h64l31.573 47.787c1.707 1.707 4.267 3.413 6.827 3.413H384c3.413 0 5.973-1.707 7.68-5.12l23.04-46.08h23.893l23.04 46.08c1.707 3.413 4.267 5.12 7.68 5.12h34.133c5.12 0 8.533-3.413 8.533-8.533V196.267c.001-5.12-3.412-8.534-8.532-8.534zM162.133 102.4h136.533v34.133H162.133V102.4zm34.134 51.2h68.267v34.133h-68.267V153.6zM51.2 358.4V238.933h51.2V358.4H51.2zm326.827 51.2H149.333l-29.867-45.204V204.8H332.8v25.6c0 5.12 3.413 8.533 8.533 8.533h37.547l22.187 36.978v87.609l-23.04 46.08zm40.106-51.2v-76.8H435.2v76.8h-17.067zm76.8 51.2h-20.48l-22.187-42.789v-93.714l23.04-68.297h19.627v204.8z" fill="#FFF"/></svg>