<svg xmlns="http://www.w3.org/2000/svg" viewBox="0 0 50 60"><path fill="#e8e8e8" d="M50 60H0V0h37.5L50 12z"/><path fill="#d1d3d3" d="M50 12H37.5V0z"/><path d="M0 0h37.5v6H0zm24.5 48.6V54h-2v-.7c-.8.6-1.8.9-2.9.9-2.8 0-5-2.2-5-4.8 0-2.7 2.2-4.8 5-4.8 1.2 0 2.4.4 3.3 1.2l-1.5 1.4c-.5-.4-1.1-.6-1.8-.6-.8 0-1.5.3-2.1.8-.6.5-.9 1.2-.9 2s.3 1.5.9 2c.5.5 1.3.8 2.1.8s1.5-.3 2.1-.8c.1-.1.5-.5.7-.9h-2.3v-1.9h4.4zm-2 1.9zm5-5.8V54h-2.3v-9.4h2.3zm5.5 2.2V54h-2.3v-7.1h-2.5v-2.2h7.4v2.2H33zm-8-32.7c-6.8 0-12.3 5.3-12.3 11.9 0 5.3 3.5 9.7 8.4 11.3.6.1.9-.2.9-.6v-2c-3.4.7-4.1-1.6-4.1-1.6-.5-1.3-1.4-1.7-1.4-1.7-1.1-.7.1-.7.1-.7 1.3.1 1.9 1.2 1.9 1.2 1.1 1.8 2.9 1.3 3.6 1 .1-.7.4-1.3.8-1.6-2.8-.2-5.6-1.3-5.6-5.9 0-1.3.5-2.4 1.3-3.2-.1-.2-.5-1.6.1-3.1 0 0 1-.4 3.4 1.2 1-.2 2-.4 3.1-.4 1 0 2.1.1 3.1.4 2.4-1.6 3.4-1.2 3.4-1.2.6 1.7.3 2.9.1 3.1.8.8 1.3 1.9 1.3 3.2 0 4.6-2.9 5.5-5.6 5.9.5.4.9 1.1.9 2.2v3.2c0 .4.3.7.9.6 4.9-1.6 8.4-6 8.4-11.3-.3-6.7-5.9-11.9-12.7-11.9z" fill="#a4a9ad"/></svg>