<svg id="Слой_1" data-name="Слой 1" xmlns="http://www.w3.org/2000/svg" viewBox="0 0 50 60"><defs><style>.cls-3{fill:#da4648}</style></defs><g id="Слой_1-2" data-name="Слой 1"><path fill="#e8e8e8" d="M50 60H0V0h37.5L50 12v48z"/><path fill="#d1d3d3" d="M50 12H37.5V0L50 12z"/><path class="cls-3" d="M0 0h37.5v6H0z"/></g><path d="M18.57 49.48V54H17v-.62a4 4 0 1 1 .29-6.38l-1.2 1.19a2.39 2.39 0 0 0-1.42-.47 2.27 2.27 0 0 0-1.64.68 2.34 2.34 0 0 0 1.64 4 2.37 2.37 0 0 0 1.66-.68 2.77 2.77 0 0 0 .54-.72h-1.8v-1.52h3.5zM17 51zm9-4.8v4.5a3.33 3.33 0 0 1-6.67 0v-4.5H21v4.47a1.41 1.41 0 0 0 .52 1.15 1.78 1.78 0 0 0 1.07.43 1.81 1.81 0 0 0 .54-.11 1.9 1.9 0 0 0 .56-.34 1.58 1.58 0 0 0 .37-.48 1.38 1.38 0 0 0 .13-.64V46.2H26zm6.31 6.12V54h-5.62v-7.8h1.87v6.12h3.75zm7.03-3.45a2.62 2.62 0 0 1-2.81 2.65h-1.84V54h-1.87v-7.8h3.74a2.65 2.65 0 0 1 2.78 2.67zm-1.68 0a1 1 0 0 0-1.1-1h-1.87v2h1.85a1.57 1.57 0 0 0 .62-.11 1.16 1.16 0 0 0 .28-.2 1.1 1.1 0 0 0 .22-.69z" fill="#a4a9ad"/><g id="Gulp-Logo"><path id="Cup" class="cls-3" d="M24.93 33.34a17.38 17.38 0 0 1-4-.45 7.65 7.65 0 0 1-1.14-.35l.92 1.57.38 4.89c0 .55 1.75 1 3.91 1s3.91-.45 3.91-1l.29-5 .87-1.52a7.57 7.57 0 0 1-1.15.36 17.38 17.38 0 0 1-3.99.5zm5.16-16a38.81 38.81 0 0 1-5.09.3 38.81 38.81 0 0 1-5.09-.3 9.54 9.54 0 0 1-1.59-.34 2.3 2.3 0 0 1-.39-.16l.84 7.77q.06-.2.13-.4a7.6 7.6 0 0 1 .34-.8 7.09 7.09 0 0 1 .43-.74 5.72 5.72 0 0 1 .49-.64 3.91 3.91 0 0 1 .53-.5 2.53 2.53 0 0 1 .55-.33 1.4 1.4 0 0 1 .55-.12 1.19 1.19 0 0 1 .61.17 1.74 1.74 0 0 1 .55.56.45.45 0 0 1 .05.19 1 1 0 0 1 0 .17.44.44 0 0 1-.09.29.26.26 0 0 1-.21.11.27.27 0 0 1-.21-.12 2.21 2.21 0 0 1-.21-.33.81.81 0 0 0-.24-.28.51.51 0 0 0-.29-.09.89.89 0 0 0-.52.2 3 3 0 0 0-.54.53 5.81 5.81 0 0 0-.52.75 7.86 7.86 0 0 0-.44.87 6.2 6.2 0 0 0-.3.88 3.11 3.11 0 0 0-.11.78 1.86 1.86 0 0 0 0 .24.79.79 0 0 0 .06.22.44.44 0 0 0 .12.16.28.28 0 0 0 .19.06.64.64 0 0 0 .31-.1 2.18 2.18 0 0 0 .34-.23 4.23 4.23 0 0 0 .35-.32q.18-.18.33-.36t.27-.35a2 2 0 0 0 .18-.29l.32-1a.45.45 0 0 1 .21-.16.34.34 0 0 1 .2-.07h.1l.09.05a.24.24 0 0 1 .06.09.34.34 0 0 1 0 .13 1.87 1.87 0 0 1 0 .37 2.93 2.93 0 0 1-.09.34q-.05.16-.12.33l-.13.35a.79.79 0 0 0-.05.13l-.09.27-.15.38-.12.41-.12.41-.11.37-.08.27v.13a.85.85 0 0 1-.06.15 1 1 0 0 1-.09.15.55.55 0 0 1-.11.12.21.21 0 0 1-.13 0 .18.18 0 0 1-.2-.01.51.51 0 0 1-.05-.27v-.07a.58.58 0 0 1 0-.06 1.45 1.45 0 0 1 .05-.25l.12-.41.15-.47.14-.47q-.18.2-.4.41a4.29 4.29 0 0 1-.44.36 2.6 2.6 0 0 1-.45.26 1.07 1.07 0 0 1-.44.1.79.79 0 0 1-.42-.11L19 27l.47 5c.12.26 2.43 1 5.46 1s5.34-.75 5.46-1.06l.67-5.86-.16.15a7.08 7.08 0 0 1-.55.46 2.47 2.47 0 0 1-.5.3 1.3 1.3 0 0 1-.53.11.64.64 0 0 1-.39-.1.38.38 0 0 1-.14-.32v-.06a.74.74 0 0 1 .11-.28 3.25 3.25 0 0 1 .22-.34l.28-.35.27-.33a3.22 3.22 0 0 0 .21-.32.43.43 0 0 0 .12-.17.1.1 0 0 0 0-.08.18.18 0 0 0-.11 0 .65.65 0 0 0-.29.07 1.42 1.42 0 0 0-.29.19 2.63 2.63 0 0 0-.28.28 4.08 4.08 0 0 0-.26.32q-.12.17-.22.34l-.17.31-.06.13-.08.18-.1.21L28 27l-.07.17v.1l-.06.14-.09.24-.11.29-.11.29-.09.24v.14a1.49 1.49 0 0 1-.08.2.83.83 0 0 1-.11.17.49.49 0 0 1-.28.02.35.35 0 0 1-.17 0 .34.34 0 0 1-.17 0 .27.27 0 0 1-.08-.23.71.71 0 0 1 0-.17 1.5 1.5 0 0 1 .05-.17l.06-.16.06-.15.38-.82.37-.81.07-.17a4.59 4.59 0 0 1-.45.38 2.37 2.37 0 0 1-.44.26 1 1 0 0 1-.43.1.55.55 0 0 1-.24 0 .39.39 0 0 1-.15-.12.49.49 0 0 1-.08-.18v-.07l-.12.09a2.48 2.48 0 0 1-.42.24.93.93 0 0 1-.37.09.35.35 0 0 1-.28-.11.55.55 0 0 1-.1-.38 2.06 2.06 0 0 1 .06-.44 2.24 2.24 0 0 1-.22.32 2 2 0 0 1-.31.3 1.54 1.54 0 0 1-.39.22 1.27 1.27 0 0 1-.47.08h-.22a.46.46 0 0 1-.18-.1.49.49 0 0 1-.13-.19.77.77 0 0 1 0-.29v-.14a2.67 2.67 0 0 1 .05-.38q.07-.26.23-.67t.44-1a.55.55 0 0 1 .17-.22.35.35 0 0 1 .2-.11h.2a.24.24 0 0 1 .07.08.21.21 0 0 1 0 .11.28.28 0 0 1 0 .08.93.93 0 0 1-.07.18l-.13.26-.16.31q-.08.17-.16.35a3.47 3.47 0 0 0-.12.37 1.58 1.58 0 0 0-.06.36.27.27 0 0 0 0 .14.12.12 0 0 0 .11.06.72.72 0 0 0 .43-.15 1.9 1.9 0 0 0 .38-.37 3.52 3.52 0 0 0 .31-.47q.14-.25.23-.46a2.33 2.33 0 0 0 .12-.3 3 3 0 0 1 .13-.2.91.91 0 0 1 .13-.23.24.24 0 0 1 .22-.12.24.24 0 0 1 .2.09.36.36 0 0 1 .07.23.64.64 0 0 1 0 .2l-.12.29-.15.35q-.08.19-.15.38a3.79 3.79 0 0 0-.2.46 1.43 1.43 0 0 0 0 .35.13.13 0 0 0 .15.15.66.66 0 0 0 .27-.07 1.82 1.82 0 0 0 .33-.21l.09-.07a2.84 2.84 0 0 1 .11-.37l.25-.63.23-.58 1-2.64a.44.44 0 0 1 .17-.23.4.4 0 0 1 .21-.07.31.31 0 0 1 .2.07.27.27 0 0 1 .09.23.46.46 0 0 1 0 .16l-.1.13-.21.47-.26.61-.25.7-.28.67-.26.64-.21.52a2.3 2.3 0 0 0-.07.22.81.81 0 0 0 0 .22.2.2 0 0 0 0 .1.08.08 0 0 0 .08 0 .45.45 0 0 0 .18-.05l.24-.14.24-.18.27-.23.26-.23.27-.19h.05c0-.12.07-.23.11-.34l.08-.21a2.87 2.87 0 0 1 .11-.27 1.14 1.14 0 0 1 .14-.23.22.22 0 0 1 .17-.1.27.27 0 0 1 .2.06.26.26 0 0 1 .06.19.68.68 0 0 1 0 .08v.3l.28-.28a2.84 2.84 0 0 1 .31-.25 1.78 1.78 0 0 1 .33-.18A.85.85 0 0 1 30 24a.8.8 0 0 1 .23 0 .65.65 0 0 1 .2.1.5.5 0 0 1 .14.16.44.44 0 0 1 .06.22.88.88 0 0 1-.08.36 2.6 2.6 0 0 1-.21.38q-.13.19-.28.37l-.25.41-.22.25a.38.38 0 0 0-.09.14.11.11 0 0 0 0 .08.14.14 0 0 0 .1 0 .4.4 0 0 0 .17-.07 3 3 0 0 0 .32-.23l.52-.43.5-.44.91-8.47a2.29 2.29 0 0 1-.39.16 9.54 9.54 0 0 1-1.54.37zm-5.1-2c-4 0-7.16.44-7.16 1s3.2 1 7.16 1 7.16-.44 7.16-1-3.2-.99-7.15-.99zm2.86 1.28a1 1 0 0 1-.85.23 1 1 0 0 1-.85-.23 1 1 0 0 1 .85-.23 1 1 0 0 1 .85.23z"/><path id="Straw" class="cls-3" d="M26.32 16.52a.91.91 0 0 0 .68.15.91.91 0 0 0 .68-.15l.89-3.63 3.56-3.75a.66.66 0 0 0-.33-.57.59.59 0 0 0-.61-.22l-3.79 4z"/></g></svg>