<svg xmlns="http://www.w3.org/2000/svg" viewBox="0 0 50 60"><path fill="#e8e8e8" d="M50 60H0V0h37.5L50 12z"/><path fill="#d1d3d3" d="M50 12H37.5V0z"/><path d="M0 0h37.5v6H0zm15.2 44.6V54h-2.4v-3.7H9.9V54H7.5v-9.4h2.4v3.7h3v-3.7h2.3zm5.7 2.3V54h-2.4v-7.1H16v-2.3h7.4v2.3h-2.5zm13.8-2.3V54h-2.4v-5.3l-2.9 1.8-2.8-1.8V54h-2.4v-9.4l5.1 3.2 5.4-3.2zm7.8 7.4v2h-7.2v-9.4h2.4V52h4.8zM20.4 18.4c-.6-.6-1.5-.6-2 0l-8.6 8.3c-.6.6-.6 1.4 0 1.9l8.6 8.3c.3.2.6.4 1 .4s.8-.1 1-.4c.6-.6.6-1.4 0-1.9l-7.6-7.3 7.6-7.3c.5-.6.5-1.4 0-2zm20 8.4l-8.6-8.3c-.6-.6-1.5-.6-2 0-.6.6-.6 1.4 0 1.9l7.6 7.3-7.6 7.3c-.6.6-.6 1.4 0 1.9.3.2.6.4 1 .4s.8-.1 1-.4l8.6-8.3c.5-.5.5-1.4 0-1.8z" fill="#a4a9ad"/></svg>