<svg xmlns="http://www.w3.org/2000/svg" viewBox="0 0 50 60"><style>.st2{fill:#df3a5c}</style><g id="Слой_1"><path fill="#e8e8e8" d="M50 60H0V0h37.5L50 12z"/><path fill="#d1d3d3" d="M50 12H37.5V0z"/><path class="st2" d="M0 0h37.5v6H0z"/><path d="M12.1 44.7V54H9.8v-9.4h2.3zm9.4 0V54L15 49.5V54h-2.3v-9.4l6.5 4.8v-4.8h2.3zm9.4 4.7c0 2.6-2.2 4.7-4.9 4.7h-3.7v-9.4H26c2.7 0 4.9 2.1 4.9 4.7zm-2.3 0c0-.7-.3-1.3-.8-1.8s-1.2-.7-1.9-.7h-1.3V52H26c.7 0 1.4-.3 1.9-.7.5-.6.7-1.2.7-1.9zm11.4 0c0 2.6-2.2 4.7-4.9 4.7h-3.7v-9.4h3.7c2.7 0 4.9 2.1 4.9 4.7zm-2.2 0c0-.7-.3-1.3-.8-1.8s-1.2-.7-1.9-.7h-1.3V52h1.4c.7 0 1.4-.3 1.9-.7.4-.6.7-1.2.7-1.9z" fill="#a4a9ad"/><path class="st2" d="M16 36.4V19h3.6v17.4H16zm18 0h-3.3v-1.8c-1.1 1.4-2.6 2.2-4.1 2.2-1.5 0-2.8-.6-3.9-1.8-1.1-1.2-1.6-2.8-1.6-4.9s.5-3.7 1.6-4.9c1-1.1 2.4-1.7 4-1.7 1.5 0 2.8.6 3.9 1.8V19h3.5L34 36.4zm-9.4-6.6c0 1.3.3 2.3.6 2.9.5.8 1.4 1.3 2.4 1.3.8 0 1.5-.4 2-1s.9-1.7.9-2.9c0-1.4-.3-2.5-.9-3.1-.5-.6-1.3-1-2.1-1s-1.5.4-2.1 1c-.4.6-.8 1.6-.8 2.8z"/></g></svg>