<svg xmlns="http://www.w3.org/2000/svg" viewBox="0 0 50 60"><style>.st2{fill:#a4a9ad}</style><g id="Слой_1"><path fill="#e8e8e8" d="M50 60H0V0h37.5L50 12z"/><path fill="#d1d3d3" d="M50 12H37.5V0z"/><path class="st2" d="M0 0h37.5v6H0zm4.8 56.7c-.1 0-.1 0 0 0v-1.8c.3 0 .5-.1.6-.2.1-.1.2-.3.2-.6v-6.8h1.9V54c0 1.5-1.2 2.7-2.7 2.7zm2.7-10.3H5.6v-1.6h1.9v1.6zm8.7 8.2l-1-.9c-.7.4-1.4.6-2.3.6-2.5 0-4.6-2-4.6-4.4s2.1-4.4 4.6-4.4 4.6 2 4.6 4.4c0 .9-.3 1.7-.8 2.5l.9.9-1.4 1.3zm-2.5-2.3l-.8-.8 1.5-1.5.9.9c.2-.3.3-.7.3-1.1 0-.7-.3-1.3-.8-1.8s-1.2-.8-1.9-.8-1.3.3-1.9.8c-.5.5-.8 1.1-.8 1.8s.3 1.3.8 1.8 1.2.8 1.9.8c.3 0 .6 0 .8-.1zm4.8-5.1h1.8v3.4c0 .4.3 1.7 1.6 1.7 1.4 0 1.6-1.2 1.6-1.7v-3.4h1.9V54h-1.9v-.7c-.5.6-1.1.7-1.7.7-1.8 0-3.3-1.4-3.3-3.3v-3.5zm14.6 4.1h-5.2c.1.3.2.4.4.6.3.3.8.5 1.2.5.5 0 .9-.2 1.2-.5l.1-.1 1.8.5c-.7 1.1-1.5 1.7-3.1 1.7-2 0-3.5-1.5-3.6-3.4s1.6-3.4 3.5-3.4c2 0 3.5 1.5 3.6 3.4.1.1.1.6.1.7zm-4.8-1.9c-.2.2-.3.3-.4.6h3.2c-.1-.2-.2-.4-.4-.6-.2-.3-.7-.4-1.1-.4s-1 .1-1.3.4zm9.7-2.3V49c-1.5 0-2.4 1.1-2.4 2v3h-1.9v-6.8h1.9v1c.3-.8.9-1.1 2.4-1.1zm4.5 7.2c-.6 1.4-2.1 2.3-3.6 2.3v-1.8c.3 0 .6-.1.9-.2.4-.2.7-.5.9-.8l.4-1-2.4-5.5h2.1l1.3 3 1.1-3h2.1l-2.8 7z"/><path id="signet" class="st2" d="M27.1 15.7l-.6.8c-.9 1.2-.9 2.6-.4 4 .6 1.4 1.9 2.5 3.4 3 0 0 .1 0 .1.1h.1c.1 0 .1 0 .3.1 4.1.7 5.3-2 5.5-2.4-1 1.3-2.6 1.7-4.6 1.2-.1 0-.4-.1-.5-.1-.3-.1-.4-.1-.6-.2-.4-.1-.8-.4-1-.6-1.7-1.4-2.8-3.8-1.7-5.9zm-4.6 1l-1.1 1.6c-1.4 1.9-1.4 4.6-.3 6.7.3.4.4.7.6 1 .3.2.5.6.8.8.1.1.3.2.4.4l.1.1c.1.1.3.2.4.2.1.1.3.2.4.4l.1.1c.1.1.3.2.4.2l.1.1h.1c.1.1.3.1.3.1.1 0 .1.1.3.1h.1l.1.1c.1 0 .3.1.4.1h.1c.1 0 .3.1.3.1h.1c.1 0 .3.1.3.1h.1c.1 0 .3.1.4.1 7.4 1.2 9.1-4.3 9.1-4.3-1.5 2.2-4.5 3.1-7.8 2.4-.1 0-.3-.1-.4-.1h-.1c-.1 0-.3-.1-.3-.1h-.1c-.1 0-.3-.1-.4-.1h-.1c-.1 0-.3-.1-.4-.1-.1 0-.1-.1-.3-.1h-.1c-.1 0-.1-.1-.3-.1-.1 0-.3-.1-.3-.1h-.1c-.1 0-.1-.1-.3-.1 0-.1-.1-.3-.2-.3l.1-.1c-1.4-1.1-2.5-2.5-3-4.1-.5-1.6-.4-3.6.5-5.1zm-5.7 2l-1.5 1.9c-2 2.8-1.8 6.2-.3 9.2 0 .1.1.1.1.2 0 0 0 .1.1.1v.1s0 .1.1.1c0 .1.1.1.1.2 0 0 0 .1.1.1 0 .1.1.1.1.2l.1.1c.1.1.1.2.3.4.1.1.1.2.3.2l.1.1c.1.1.1.1.3.2l.1.1c.1.1.3.2.3.4.1.1.3.2.3.2l.1.1c.1.1.1.1.3.2l.1.1c.1.1.3.2.4.2.1.1.3.1.3.2l.1.1c.1.1.1.1.3.2l.1.1c.1.1.1.1.3.2l.1.1c.1 0 .1.1.3.1l.1.1c.1.1.2.1.4.2l.1.1c.1 0 .3.1.3.1s.1 0 .1.1c.1 0 .1.1.3.1H21c.1 0 .3.1.4.1h.1c.1 0 .3.1.4.1h.1c.1 0 .3.1.4.1.1 0 .3.1.4.1h.1c.1 0 .3.1.5.1 9.6 1.7 12.4-5.5 12.4-5.5-2.4 2.9-6.5 3.7-10.4 2.9-.1 0-.3-.1-.5-.1h-.1c-.1 0-.3-.1-.4-.1-.1 0-.3-.1-.4-.1h-.1c-.1 0-.3-.1-.4-.1h-.1c-.1 0-.3-.1-.4-.1h-.1c-.1 0-.1-.1-.3-.1 0 0-.1 0-.1-.1-.1 0-.3-.1-.4-.1H22c-.1-.1-.3-.1-.4-.2l-.1-.1c-.1-.1-.3-.1-.3-.2l-.1-.1c-.1-.1-.3-.1-.3-.2l-.1-.1c-.1-.1-.1-.1-.3-.2l-.1-.1c-.1-.1-.3-.1-.3-.2-.1-.1-.3-.2-.4-.2l-.1-.1c-.1-.1-.1-.1-.3-.2l-.1-.1c0 .2-.1.1-.1.1-.1-.1-.3-.2-.3-.4l-.1-.1c-.1-.1-.1-.1-.3-.2l-.1-.1c-.1-.1-.1-.2-.3-.4-2-3-2.9-6.8-1.1-10.1z"/></g></svg>