<svg xmlns="http://www.w3.org/2000/svg" viewBox="0 0 50 60"><style>.st2{fill:#eeaf4b}</style><g id="Слой_1"><path fill="#e8e8e8" d="M50 60H0V0h37.5L50 12z"/><path fill="#d1d3d3" d="M50 12H37.5V0z"/><path class="st2" d="M0 0h37.5v6H0z"/><path d="M20 44.6h2.4V54c0 2.2-.6 3.4-3.5 3.4v-2.2c.8 0 1.2-.4 1.2-1.2v-9.4H20zm5.5 9.2c-.5-.2-.9-.5-1.3-.7-1.1-1-1-2.4-1-2.5h2s0 .5.3.8c.3.5.9.6 1.6.6 1.4 0 2-.4 2-.8 0-.6-.8-1-2-1.1-.8-.1-1.5-.2-2-.5-.5-.2-.9-.5-1.3-.8-.5-.5-.6-1.1-.6-1.7 0-.8.4-1.4.6-1.8.8-.7 1.8-1.1 3.4-1.1 2 0 3 .8 3.5 1.6s.5 1.7.5 1.8h-2s0-.5-.3-.7c-.3-.4-.9-.6-1.7-.6-.9 0-1.9.2-1.9.8 0 .6.6 1 2 1.1 1.5.1 2.6.6 3.3 1.3.4.5.6 1.1.6 1.7 0 .4 0 1.1-.6 1.8-.4.4-.8.6-1.4.8s-1.2.2-2.1.2c-.6 0-1.1-.1-1.6-.2z" fill="#a4a9ad"/><path class="st2" d="M16.1 24.5v-4.3c0-.6.5-1.1 1.1-1.1s1.1-.5 1.1-1.1-.5-1.1-1.1-1.1c-1.9 0-3.4 1.4-3.4 3.2v4.3c0 1.2-1 2.2-2.3 2.2-.6 0-1.1.5-1.1 1.1 0 .6.5 1.1 1.1 1.1 1.3 0 2.3 1 2.3 2.2v4.3c0 1.8 1.5 3.2 3.4 3.2.6 0 1.1-.5 1.1-1.1s-.5-1.1-1.1-1.1-1.1-.5-1.1-1.1V31c0-1.3-.6-2.4-1.5-3.2.9-.9 1.5-2 1.5-3.3z"/><ellipse class="st2" cx="25" cy="24" rx="1.6" ry="1.6"/><path class="st2" d="M38.4 26.6c-1.3 0-2.3-1-2.3-2.2v-4.3c0-1.8-1.5-3.2-3.4-3.2-.6 0-1.1.5-1.1 1.1 0 .6.5 1.1 1.1 1.1s1.1.5 1.1 1.1v4.3c0 1.3.6 2.4 1.5 3.2-1 .8-1.5 1.9-1.5 3.2v4.3c0 .6-.5 1.1-1.1 1.1s-1.1.5-1.1 1.1c0 .6.5 1.1 1.1 1.1 1.9 0 3.4-1.4 3.4-3.2V31c0-1.2 1-2.2 2.3-2.2.6 0 1.1-.5 1.1-1.1s-.5-1.1-1.1-1.1zM25 29.9c-.6 0-1.1.5-1.1 1.1v3.2c0 .6.5 1.1 1.1 1.1s1.1-.5 1.1-1.1V31c0-.6-.5-1.1-1.1-1.1z"/></g></svg>