<svg xmlns="http://www.w3.org/2000/svg" viewBox="0 0 50 60"><path fill="#e8e8e8" d="M49.9 60H0V0h37.4l12.5 12z"/><path fill="#d1d3d3" d="M49.9 12H37.4V0z"/><path d="M0 0h37.4v6H0zm11.6 36.4V18.8c6 0 9 0 10.2.2 1 .2 1.9.8 2.6 1.7 1.4 1.7 1.2 4.6.5 6.1-.7 1.4-2.1 2.3-3.5 2.5-1.6.4-4 .2-6.2.2v6.6l-3.6.3zm3.6-14.6v4.9c3.7 0 5.1.1 6.1-1.1.6-.8.6-2.2-.1-2.9-1-1-2-.9-6-.9zm10.7 11l3.5-.5c.4 1.4 1.4 2 2.9 2 1.1 0 2.5-.2 2.5-1.3 0-.7-.6-.8-1.4-1.1-2.9-.6-4.6-1.1-5.4-1.7-1-.7-1.6-1.7-1.6-2.9 0-1.1.5-2 1.4-2.8.9-.7 2.2-1.1 4.2-1.1 2.9 0 5 .7 5.9 3.4l-3.2.6c-.1-.5-.4-.8-.7-1.1-.9-.6-3-.5-3.6 0-.5.4-.5 1 0 1.3 1 .7 5.4 1 7.1 2.4.7.6 1.1 1.4 1.1 2.5 0 1.2-.5 2.2-1.5 3s-2.5 1.2-4.5 1.2c-1.7 0-3.2-.4-4.2-1.1-1.3-.8-2.1-1.6-2.5-2.8zm-5.9 15c0 1.3-.9 3.2-3.5 3.2h-2.3v3h-2.3v-9.4h4.6c2.4 0 3.5 1.8 3.5 3.2zm-2.1 0c0-.2-.1-.6-.3-.8-.2-.3-.6-.4-1.1-.4h-2.3V49h2.3c.3 0 .6 0 .8-.1.1-.1.2-.1.3-.2.2-.3.3-.6.3-.9zm4.9 5.9c-.5-.2-.9-.5-1.2-.8-1.1-1-1-2.3-1-2.5h2.1s0 .5.2.9c.3.4.9.6 1.7.6 1.3 0 1.9-.3 1.9-.9 0-.6-.8-.9-2-1.1-.8-.1-1.4-.2-2-.5-.5-.2-.9-.5-1.2-.8-.4-.5-.7-1-.7-1.7 0-.9.4-1.5.7-1.8.7-.7 1.8-1.1 3.3-1.1 2 0 3 .8 3.5 1.6s.5 1.6.5 1.8h-2.1s0-.4-.2-.7c-.3-.4-.9-.6-1.7-.6-.9 0-1.9.2-1.9.8 0 .6.7 1 2 1.1 1.5.2 2.6.6 3.2 1.3.4.5.7 1.1.7 1.7 0 .3 0 1.1-.6 1.8-.3.4-.8.6-1.3.8-.7.3-1.4.4-2.2.4-.6 0-1.2-.1-1.7-.3zM38 49.4c0 2.6-2.2 4.7-4.9 4.7h-3.7v-9.4h3.7c2.7 0 4.9 2.1 4.9 4.7zm-2.2 0c0-.7-.3-1.3-.8-1.8s-1.2-.7-1.9-.7h-1.3V52h1.4c.7 0 1.4-.3 1.9-.7.4-.6.7-1.2.7-1.9z" fill="#a4a9ad"/></svg>