<svg xmlns="http://www.w3.org/2000/svg" viewBox="0 0 50 60"><path fill="#e8e8e8" d="M50 60H.2V0h37.4L50 12z"/><path fill="#d1d3d3" d="M49.9 12H37.4V0z"/><path d="M.1 0h37.3v6H.1zm10.4 53.8c-.5-.2-.8-.5-1.2-.8-1.1-1-1-2.3-1-2.5h2s0 .5.2.9c.3.4.9.6 1.7.6 1.3 0 1.9-.3 1.9-.9 0-.6-.8-.9-2-1.1-.8-.1-1.4-.2-2-.5-.5-.2-.9-.5-1.2-.8-.4-.5-.7-1-.7-1.7 0-.9.4-1.5.7-1.8.7-.7 1.8-1.1 3.3-1.1 2 0 3 .8 3.5 1.6s.5 1.6.5 1.8h-2s0-.4-.2-.7c-.3-.4-.9-.6-1.7-.6-.9 0-1.9.2-1.9.8 0 .6.7 1 2 1.1 1.5.2 2.6.6 3.2 1.3.4.5.7 1.1.7 1.7 0 .3 0 1.1-.6 1.8-.3.4-.8.6-1.3.8-.6.2-1.3.3-2.1.3-.7 0-1.3-.1-1.8-.2zm12-1.1h-3.7l-.6 1.3h-2.7l5.2-9.4 5.2 9.4h-2.7l-.7-1.3zm-.9-1.7l-.9-1.6-.9 1.6h1.8zm5.7 2.8c-.5-.2-.9-.5-1.2-.8-1.1-1-1-2.3-1-2.5h2s0 .5.2.9c.3.4.9.6 1.7.6 1.3 0 1.9-.3 1.9-.9 0-.6-.8-.9-2-1.1-.8-.1-1.4-.2-2-.5-.5-.2-.9-.5-1.2-.8-.4-.5-.7-1-.7-1.7 0-.9.4-1.5.7-1.8.7-.7 1.8-1.1 3.3-1.1 2 0 3 .8 3.5 1.6s.5 1.6.5 1.8h-2s0-.4-.2-.7c-.3-.4-.9-.6-1.7-.6-.9 0-1.9.2-1.9.8 0 .6.7 1 2 1.1 1.5.2 2.6.6 3.2 1.3.4.5.7 1.1.7 1.7 0 .3 0 1.1-.6 1.8-.3.4-.8.6-1.3.8-.7.2-1.4.3-2.2.3-.6 0-1.2-.1-1.7-.2zm8.9 0c-.5-.2-.9-.5-1.2-.8-1.1-1-1-2.3-1-2.5h2s0 .5.2.9c.3.4.9.6 1.7.6 1.3 0 1.9-.3 1.9-.9 0-.6-.8-.9-2-1.1-.8-.1-1.4-.2-2-.5-.5-.2-.9-.5-1.2-.8-.4-.5-.7-1-.7-1.7 0-.9.4-1.5.7-1.8.7-.7 1.8-1.1 3.3-1.1 2 0 3 .8 3.5 1.6s.5 1.6.5 1.8h-2s0-.4-.2-.7c-.3-.4-.9-.6-1.7-.6-.9 0-1.9.2-1.9.8 0 .6.7 1 2 1.1 1.5.2 2.6.6 3.2 1.3.4.5.7 1.1.7 1.7 0 .3 0 1.1-.6 1.8-.3.4-.8.6-1.3.8-.6.2-1.3.3-2.1.3-.7 0-1.3-.1-1.8-.2zm.5-26.4c-1.1 0-2.1.2-2.9.6-.2-.6-.6-1.1-.6-1.4 0-.5-.1-.7 0-1.2s.4-1.2.4-1.3c0 0-.1-.4-.7-.4s-1.2.1-1.2.2c-.1.1-.2.5-.2 1-.1.6-1.2 2.5-2 3.6-.2-.4-.4-.7-.5-1.1 0-.5-.1-.7 0-1.2s.4-1.2.4-1.3c0 0-.1-.4-.7-.4s-1.2.1-1.2.2-.1.6-.2 1-1.7 3.7-2.1 4.6c-.2.5-.4.8-.5 1.1-.1.2 0 0 0 0-.1.2-.1.4-.1.4-.1.1-.1.2-.2.2 0 0-.1-.4 0-1 .2-1.2.7-3 .7-3s.1-.4-.4-.5c-.5-.1-.6.1-.6.1l-.1.1s.5-2-1-2c-.9 0-2.2 1-2.9 1.8-.4.2-1.2.6-2.1 1.1-.4.2-.7.4-1 .6l-.5-.2c-1.7-1.8-5.1-3.1-5-5.6 0-.8.4-3.2 6.3-6.1 4.9-2.4 8.8-1.7 9.5-.2 1 2-2.1 5.9-7.2 6.4-2 .2-3-.5-3.2-.8-.2-.2-.2-.2-.4-.2-.1.1-.1.4 0 .5.1.4.7 1.1 1.9 1.4.9.2 3.2.5 6-.6 3.1-1.2 5.5-4.3 4.7-7.1-.7-2.8-5.4-3.6-9.8-2-2.6 1-5.5 2.3-7.6 4.2-2.5 2.2-2.9 4.1-2.6 4.9.6 2.9 4.6 4.7 6.2 6.1-.1 0-.1.1-.2.1-.9.4-3.9 1.9-4.7 3.6-.9 1.9.1 3.2.9 3.4 2.1.6 4.2-.5 5.4-2.2s1-3.8.5-4.8l.6-.4c.4-.2.9-.5 1.1-.6-.2.5-.4 1.2-.4 2-.1 1.1.4 2.4 1 3 .2.2.6.2.7.2.7 0 1-.6 1.4-1.2.4-.8.7-1.7.7-1.7s-.5 2.5.9 2.5c.5 0 1-.6 1.1-.8v-.1c0-.1.1-.1.1-.1.2-.4.6-1.1 1.2-2.2.7-1.6 1.6-3.5 1.6-3.5s.1.5.2 1.2c.1.5.5 1 .6 1.4-.2.2-.2.4-.2.4-.1.2-.4.4-.5.6-.6.7-1.4 1.6-1.5 1.8-.1.2-.1.5.1.7.1.1.5.1.7.1.6 0 1-.1 1.1-.2.4-.1.6-.2 1-.5.6-.5 1-1.1 1-1.9 0-.5-.1-1-.4-1.3 0-.1.1-.1.1-.2 1-1.4 1.7-2.9 1.7-2.9s.1.5.2 1.2c.1.4.4.8.6 1.2-.9.7-1.5 1.6-1.7 2.2-.4 1.1-.1 1.4.5 1.6.2 0 .6-.1.9-.1.4-.1.7-.2 1.1-.5.6-.5 1.2-1.1 1.2-1.9 0-.4-.1-.7-.2-1.1.7-.4 1.9-.5 3.1-.4 2.7.4 3.4 2 3.2 2.6-.1.7-.7 1.1-.9 1.2-.2.1-.2.1-.2.2s.1.1.2.1c.2 0 1.5-.6 1.5-1.9.6-1.5-1.1-3.3-3.9-3.3zm-21.5 6.9c-.9 1-2.2 1.3-2.7 1.1-.6-.4-.4-1.8.7-2.8.7-.6 1.6-1.2 2.1-1.6.1-.1.4-.2.6-.4h.1s.1 0 .1-.1c.4 1.5 0 2.9-.9 3.8zm6.7-4.3c-.4.7-1 2.6-1.4 2.6-.4-.1-.6-1.6-.1-3 .2-.7.7-1.6 1.1-1.9.5-.6 1-.7 1.2-.5.2.2-.6 2.3-.8 2.8zm5.6 2.5c-.1.1-.2.1-.4.1v-.1s.7-.7 1-1.1c.1-.2.4-.4.5-.7v.1c.1.9-.8 1.5-1.1 1.7zm4.2-.9c-.1-.1-.1-.2.2-1 .1-.2.4-.7 1-1.2.1.2.1.4.1.5.1 1.1-.8 1.5-1.3 1.7z" fill="#a4a9ad"/></svg>