<svg xmlns="http://www.w3.org/2000/svg" viewBox="0 0 50 60"><path fill="#e8e8e8" d="M50 60H0V0h37.5L50 12z"/><path fill="#d1d3d3" d="M50 12H37.5V0z"/><path d="M0 0h37.5v6H0zm9.5 46.2v4.5c0 2.1-2 3.3-3.5 3.3-1.4 0-3.5-1.1-3.5-3.3v-4.5h1.8v4.5c0 .5.2.9.5 1.2.4.3.8.4 1.1.4.2 0 .4 0 .6-.1.2-.1.5-.2.6-.4.2-.1.3-.3.4-.5.1-.2.1-.4.1-.6v-4.5h1.9zm7.8 5.6c0 2.1-2.3 2.2-2.3 2.2h-4.4v-7.8h3.8s1.8 0 2.3 1.5c.3 1.1-.3 1.9-.3 1.9s.9.5.9 2.2zm-4.8-2.4h1.7c.5 0 .9-.4.9-.9s-.4-.9-.9-.9h-1.7v1.8zm2.4 1.4h-2.4v1.7h2.4c.5 0 .9-.4.9-.9s-.4-.8-.9-.8zM25 46.2v4.5c0 2.1-1.9 3.3-3.5 3.3-1.4 0-3.5-1.1-3.5-3.3v-4.5h1.8v4.5c0 .5.2.9.5 1.2.4.3.8.4 1.1.4.2 0 .4 0 .6-.1l.6-.3c.2-.1.3-.3.4-.5.1-.2.1-.4.1-.6v-4.5H25zm8 0V54l-5.4-3.8V54h-1.9v-7.8l5.4 4v-4H33zm4.8 1.9V54h-1.9v-5.9h-2.1v-1.9H40v1.9h-2.2zm9.7-1.9v4.5c0 2.1-1.9 3.3-3.5 3.3-1.5 0-3.5-1.1-3.5-3.3v-4.5h1.8v4.5c0 .5.2.9.5 1.2.4.3.8.4 1.1.4.2 0 .4 0 .6-.1l.6-.3c.2-.1.3-.3.4-.5.1-.2.1-.4.1-.6v-4.5h1.9zm-30-18c0 1.3-1.1 2.4-2.4 2.4-1.3 0-2.4-1.1-2.4-2.4 0-1.3 1.1-2.4 2.4-2.4 1.3 0 2.4 1.1 2.4 2.4zM31 39.7c.7 1.1 2.1 1.5 3.2.9 1.1-.7 1.5-2.1.9-3.2-.7-1.1-2.1-1.5-3.2-.9-1.2.7-1.6 2.1-.9 3.2zM35.1 19c.7-1.1.3-2.6-.9-3.2-1.1-.7-2.6-.3-3.2.9-.7 1.1-.3 2.6.9 3.2 1.1.6 2.6.3 3.2-.9zm-8 2.4c3.5 0 6.4 2.7 6.7 6.2l3.4-.1c-.2-2.6-1.3-4.9-3-6.6-.9.4-2 .3-2.9-.2-.9-.5-1.5-1.4-1.6-2.4-.8-.2-1.7-.3-2.6-.3-1.6 0-3.2.4-4.5 1.1l1.7 3c.8-.5 1.8-.7 2.8-.7zm-6.8 6.8c0-2.3 1.1-4.3 2.9-5.5l-1.8-3c-2 1.4-3.6 3.4-4.2 5.9.8.6 1.2 1.6 1.2 2.6 0 1.1-.5 2-1.2 2.6.6 2.4 2.2 4.5 4.2 5.9l1.8-3c-1.8-1.2-2.9-3.2-2.9-5.5zm6.8 6.8c-1 0-2-.2-2.9-.6l-1.7 3c1.4.7 2.9 1.1 4.5 1.1.9 0 1.8-.1 2.7-.4.2-1 .7-1.9 1.6-2.4.9-.5 2-.6 2.9-.2 1.7-1.7 2.8-4 3-6.6l-3.4-.1c-.3 3.5-3.2 6.2-6.7 6.2z" fill="#a4a9ad"/></svg>