<?xml version="1.0" encoding="UTF-8" standalone="no"?>
<!-- Generator: Adobe Illustrator 19.0.0, SVG Export Plug-In . SVG Version: 6.00 Build 0)  -->

<svg
   xmlns:dc="http://purl.org/dc/elements/1.1/"
   xmlns:cc="http://creativecommons.org/ns#"
   xmlns:rdf="http://www.w3.org/1999/02/22-rdf-syntax-ns#"
   xmlns:svg="http://www.w3.org/2000/svg"
   xmlns="http://www.w3.org/2000/svg"
   xmlns:sodipodi="http://sodipodi.sourceforge.net/DTD/sodipodi-0.dtd"
   xmlns:inkscape="http://www.inkscape.org/namespaces/inkscape"
   version="1.1"
   id="Capa_1"
   x="0px"
   y="0px"
   viewBox="0 0 423 352"
   xml:space="preserve"
   sodipodi:docname="calculator.svg"
   width="423"
   height="352"
   inkscape:version="0.92.2 (unknown)"><metadata
     id="metadata6240"><rdf:RDF><cc:Work
         rdf:about=""><dc:format>image/svg+xml</dc:format><dc:type
           rdf:resource="http://purl.org/dc/dcmitype/StillImage" /><dc:title></dc:title></cc:Work></rdf:RDF></metadata><defs
     id="defs6238" /><sodipodi:namedview
     pagecolor="#ffffff"
     bordercolor="#666666"
     borderopacity="1"
     objecttolerance="10"
     gridtolerance="10"
     guidetolerance="10"
     inkscape:pageopacity="0"
     inkscape:pageshadow="2"
     inkscape:window-width="1855"
     inkscape:window-height="1176"
     id="namedview6236"
     showgrid="false"
     inkscape:zoom="1.3037281"
     inkscape:cx="-8.33277"
     inkscape:cy="216.45759"
     inkscape:window-x="65"
     inkscape:window-y="24"
     inkscape:window-maximized="1"
     inkscape:current-layer="Capa_1" /><path
     style="fill:#fdfeff;stroke-width:0.8426438"
     d="M 407.51013,102.95932 H 17.950139 c -7.492,0 -13.5680001,4.31426 -13.5680001,9.63394 v 229.75469 c 0,5.31969 6.0760001,9.63394 13.5680001,9.63394 H 407.51013 c 7.492,0 13.568,-4.31425 13.568,-9.63394 V 112.59326 c 0,-5.31968 -6.076,-9.63394 -13.568,-9.63394 z"
     id="path6091"
     inkscape:connector-curvature="0" /><rect
     x="24.970139"
     y="140.04187"
     style="fill:#4d535f"
     width="189.75999"
     height="189.75999"
     id="rect6093" /><g
     id="g6113"
     transform="translate(-43.269861,-128.35811)"><path
       style="fill:#353944"
       d="m 121.024,288.932 h -25.86 c -3.516,0 -6.364,2.852 -6.364,6.364 v 25.86 c 0,3.516 2.848,6.364 6.364,6.364 h 25.86 c 3.516,0 6.364,-2.852 6.364,-6.364 v -25.86 c 0.004,-3.516 -2.848,-6.364 -6.364,-6.364 z"
       id="path6095"
       inkscape:connector-curvature="0" /><path
       style="fill:#353944"
       d="m 180.056,288.932 h -25.86 c -3.516,0 -6.364,2.852 -6.364,6.364 v 25.86 c 0,3.516 2.852,6.364 6.364,6.364 h 25.86 c 3.516,0 6.364,-2.852 6.364,-6.364 v -25.86 c 0,-3.516 -2.848,-6.364 -6.364,-6.364 z"
       id="path6097"
       inkscape:connector-curvature="0" /><path
       style="fill:#353944"
       d="m 239.084,288.932 h -25.86 c -3.516,0 -6.364,2.852 -6.364,6.364 v 25.86 c 0,3.516 2.852,6.364 6.364,6.364 h 25.86 c 3.516,0 6.364,-2.852 6.364,-6.364 v -25.86 c 0.004,-3.516 -2.848,-6.364 -6.364,-6.364 z"
       id="path6099"
       inkscape:connector-curvature="0" /><path
       style="fill:#353944"
       d="m 121.024,347.96 h -25.86 c -3.516,0 -6.364,2.848 -6.364,6.364 v 25.86 c 0,3.516 2.848,6.364 6.364,6.364 h 25.86 c 3.516,0 6.364,-2.848 6.364,-6.364 v -25.86 c 0.004,-3.512 -2.848,-6.364 -6.364,-6.364 z"
       id="path6101"
       inkscape:connector-curvature="0" /><path
       style="fill:#353944"
       d="m 121.024,406.992 h -25.86 c -3.516,0 -6.364,2.848 -6.364,6.364 v 25.86 c 0,3.516 2.848,6.364 6.364,6.364 h 25.86 c 3.516,0 6.364,-2.848 6.364,-6.364 v -25.86 c 0.004,-3.516 -2.848,-6.364 -6.364,-6.364 z"
       id="path6103"
       inkscape:connector-curvature="0" /><path
       style="fill:#353944"
       d="m 180.056,347.96 h -25.86 c -3.516,0 -6.364,2.848 -6.364,6.364 v 25.86 c 0,3.516 2.852,6.364 6.364,6.364 h 25.86 c 3.516,0 6.364,-2.848 6.364,-6.364 v -25.86 c 0,-3.512 -2.848,-6.364 -6.364,-6.364 z"
       id="path6105"
       inkscape:connector-curvature="0" /><path
       style="fill:#353944"
       d="m 180.056,406.992 h -25.86 c -3.516,0 -6.364,2.848 -6.364,6.364 v 25.86 c 0,3.516 2.852,6.364 6.364,6.364 h 25.86 c 3.516,0 6.364,-2.848 6.364,-6.364 v -25.86 c 0,-3.516 -2.848,-6.364 -6.364,-6.364 z"
       id="path6107"
       inkscape:connector-curvature="0" /><path
       style="fill:#353944"
       d="m 239.084,347.96 h -25.86 c -3.516,0 -6.364,2.848 -6.364,6.364 v 25.86 c 0,3.516 2.852,6.364 6.364,6.364 h 25.86 c 3.516,0 6.364,-2.848 6.364,-6.364 v -25.86 c 0.004,-3.512 -2.848,-6.364 -6.364,-6.364 z"
       id="path6109"
       inkscape:connector-curvature="0" /><path
       style="fill:#353944"
       d="m 239.084,406.992 h -25.86 c -3.516,0 -6.364,2.848 -6.364,6.364 v 25.86 c 0,3.516 2.852,6.364 6.364,6.364 h 25.86 c 3.516,0 6.364,-2.848 6.364,-6.364 v -25.86 c 0.004,-3.516 -2.848,-6.364 -6.364,-6.364 z"
       id="path6111"
       inkscape:connector-curvature="0" /></g><g
     id="g6133"
     transform="translate(-43.269861,-128.35811)"><path
       style="fill:#656d7a"
       d="m 117.024,284.932 h -25.86 c -3.516,0 -6.364,2.852 -6.364,6.364 v 25.86 c 0,3.516 2.848,6.364 6.364,6.364 h 25.86 c 3.516,0 6.364,-2.852 6.364,-6.364 v -25.86 c 0.004,-3.516 -2.848,-6.364 -6.364,-6.364 z"
       id="path6115"
       inkscape:connector-curvature="0" /><path
       style="fill:#656d7a"
       d="m 176.056,284.932 h -25.86 c -3.516,0 -6.364,2.852 -6.364,6.364 v 25.86 c 0,3.516 2.852,6.364 6.364,6.364 h 25.86 c 3.516,0 6.364,-2.852 6.364,-6.364 v -25.86 c 0,-3.516 -2.848,-6.364 -6.364,-6.364 z"
       id="path6117"
       inkscape:connector-curvature="0" /><path
       style="fill:#656d7a"
       d="m 235.084,284.932 h -25.86 c -3.516,0 -6.364,2.852 -6.364,6.364 v 25.86 c 0,3.516 2.852,6.364 6.364,6.364 h 25.86 c 3.516,0 6.364,-2.852 6.364,-6.364 v -25.86 c 0.004,-3.516 -2.848,-6.364 -6.364,-6.364 z"
       id="path6119"
       inkscape:connector-curvature="0" /><path
       style="fill:#656d7a"
       d="m 117.024,343.96 h -25.86 c -3.516,0 -6.364,2.848 -6.364,6.364 v 25.86 c 0,3.516 2.848,6.364 6.364,6.364 h 25.86 c 3.516,0 6.364,-2.848 6.364,-6.364 v -25.86 c 0.004,-3.512 -2.848,-6.364 -6.364,-6.364 z"
       id="path6121"
       inkscape:connector-curvature="0" /><path
       style="fill:#656d7a"
       d="m 117.024,402.992 h -25.86 c -3.516,0 -6.364,2.848 -6.364,6.364 v 25.86 c 0,3.516 2.848,6.364 6.364,6.364 h 25.86 c 3.516,0 6.364,-2.848 6.364,-6.364 v -25.86 c 0.004,-3.516 -2.848,-6.364 -6.364,-6.364 z"
       id="path6123"
       inkscape:connector-curvature="0" /><path
       style="fill:#656d7a"
       d="m 176.056,343.96 h -25.86 c -3.516,0 -6.364,2.848 -6.364,6.364 v 25.86 c 0,3.516 2.852,6.364 6.364,6.364 h 25.86 c 3.516,0 6.364,-2.848 6.364,-6.364 v -25.86 c 0,-3.512 -2.848,-6.364 -6.364,-6.364 z"
       id="path6125"
       inkscape:connector-curvature="0" /><path
       style="fill:#656d7a"
       d="m 176.056,402.992 h -25.86 c -3.516,0 -6.364,2.848 -6.364,6.364 v 25.86 c 0,3.516 2.852,6.364 6.364,6.364 h 25.86 c 3.516,0 6.364,-2.848 6.364,-6.364 v -25.86 c 0,-3.516 -2.848,-6.364 -6.364,-6.364 z"
       id="path6127"
       inkscape:connector-curvature="0" /><path
       style="fill:#656d7a"
       d="m 235.084,343.96 h -25.86 c -3.516,0 -6.364,2.848 -6.364,6.364 v 25.86 c 0,3.516 2.852,6.364 6.364,6.364 h 25.86 c 3.516,0 6.364,-2.848 6.364,-6.364 v -25.86 c 0.004,-3.512 -2.848,-6.364 -6.364,-6.364 z"
       id="path6129"
       inkscape:connector-curvature="0" /><path
       style="fill:#656d7a"
       d="m 235.084,402.992 h -25.86 c -3.516,0 -6.364,2.848 -6.364,6.364 v 25.86 c 0,3.516 2.852,6.364 6.364,6.364 h 25.86 c 3.516,0 6.364,-2.848 6.364,-6.364 v -25.86 c 0.004,-3.516 -2.848,-6.364 -6.364,-6.364 z"
       id="path6131"
       inkscape:connector-curvature="0" /></g><g
     id="g6153"
     transform="translate(-43.269861,-128.35811)"><path
       style="fill:#fdfeff"
       d="m 99.056,409.84 h 10.076 v 24.892 h -5.344 v -20.156 h -4.736 v -4.736 z"
       id="path6135"
       inkscape:connector-curvature="0" /><path
       style="fill:#fdfeff"
       d="m 165.012,419.828 c 0.628,-0.888 0.944,-1.752 0.944,-2.584 0,-0.828 -0.272,-1.524 -0.82,-2.084 -0.548,-0.556 -1.248,-0.836 -2.1,-0.836 -1.568,0 -3.052,1.116 -4.452,3.348 l -4.452,-2.636 c 1.164,-1.804 2.44,-3.168 3.828,-4.096 1.388,-0.924 3.156,-1.388 5.308,-1.388 2.152,0 4.036,0.684 5.664,2.048 1.624,1.364 2.44,3.224 2.44,5.572 0,1.28 -0.328,2.508 -0.98,3.688 -0.652,1.172 -1.856,2.676 -3.612,4.504 l -4.488,4.664 h 9.828 v 4.984 h -17.56 v -4.128 l 7.3,-7.48 c 1.472,-1.492 2.524,-2.684 3.152,-3.576 z"
       id="path6137"
       inkscape:connector-curvature="0" /><path
       style="fill:#fdfeff"
       d="M 214.64,414.436 V 409.7 h 15.24 v 3.844 l -5.092,5.804 c 1.996,0.332 3.536,1.168 4.628,2.508 1.092,1.34 1.64,2.888 1.64,4.648 0,2.612 -0.884,4.656 -2.652,6.14 -1.768,1.484 -4.028,2.224 -6.784,2.224 -2.756,0 -5.544,-0.972 -8.368,-2.92 l 2.28,-4.416 c 2.352,1.66 4.452,2.492 6.304,2.492 1.116,0 2.036,-0.272 2.76,-0.816 0.724,-0.548 1.088,-1.336 1.088,-2.372 0,-1.032 -0.416,-1.852 -1.248,-2.456 -0.832,-0.604 -1.984,-0.908 -3.456,-0.908 -0.784,0 -1.888,0.228 -3.312,0.68 v -4.096 l 4.772,-5.624 h -7.8 z"
       id="path6139"
       inkscape:connector-curvature="0" /><path
       style="fill:#fdfeff"
       d="m 105.012,364.928 v -4.296 h 5.28 v 4.296 h 2.78 v 4.756 h -2.78 v 5.88 h -5.28 v -5.88 h -9.896 v -4.192 l 8.768,-14.544 h 5.988 l -8.344,13.98 z"
       id="path6141"
       inkscape:connector-curvature="0" /><path
       style="fill:#fdfeff"
       d="m 170.432,350.808 v 4.756 h -9.72 v 4.12 c 0.728,-0.208 1.56,-0.316 2.5,-0.316 2.372,0 4.412,0.716 6.128,2.148 1.712,1.432 2.572,3.364 2.572,5.796 0,2.428 -0.888,4.436 -2.66,6.02 -1.772,1.584 -3.964,2.376 -6.568,2.376 -3.336,0 -6.116,-1.232 -8.348,-3.696 l 2.888,-4.016 c 0.212,0.212 0.496,0.472 0.844,0.776 0.352,0.304 0.996,0.708 1.936,1.216 0.94,0.504 1.88,0.756 2.816,0.756 0.936,0 1.772,-0.284 2.5,-0.844 0.728,-0.564 1.092,-1.4 1.092,-2.5 0,-1.104 -0.396,-1.956 -1.18,-2.552 -0.788,-0.596 -1.8,-0.896 -3.044,-0.896 -1.244,0 -2.688,0.448 -4.332,1.34 l -2.288,-2.464 V 350.82 h 14.864 z"
       id="path6143"
       inkscape:connector-curvature="0" /><path
       style="fill:#fdfeff"
       d="m 223.476,355.248 c -1.528,0 -2.708,0.512 -3.54,1.532 -0.832,1.024 -1.344,2.412 -1.532,4.172 1.528,-0.984 3.144,-1.48 4.86,-1.48 2.3,0 4.22,0.752 5.76,2.256 1.536,1.5 2.304,3.504 2.304,6.004 0,2.5 -0.828,4.504 -2.48,6.004 -1.652,1.5 -3.74,2.252 -6.252,2.252 -1.74,0 -3.248,-0.332 -4.528,-1.004 -1.28,-0.668 -2.272,-1.604 -2.976,-2.8 -1.408,-2.324 -2.112,-5.232 -2.112,-8.732 0,-2.256 0.276,-4.232 0.828,-5.936 0.552,-1.704 1.308,-3.048 2.272,-4.032 1.88,-1.972 4.204,-2.956 6.972,-2.956 1.152,0 2.248,0.172 3.292,0.512 1.044,0.34 1.848,0.688 2.412,1.04 0.564,0.352 1.184,0.796 1.868,1.34 l -2.608,3.872 c -0.14,-0.14 -0.348,-0.328 -0.616,-0.56 -0.268,-0.236 -0.804,-0.54 -1.604,-0.916 -0.796,-0.384 -1.568,-0.568 -2.32,-0.568 z m -0.724,8.872 c -1.092,0 -2.008,0.324 -2.748,0.968 -0.74,0.648 -1.108,1.484 -1.108,2.52 0,1.032 0.352,1.916 1.056,2.66 0.704,0.74 1.584,1.108 2.644,1.108 1.056,0 1.936,-0.328 2.64,-0.984 0.704,-0.66 1.056,-1.512 1.056,-2.552 0,-1.048 -0.316,-1.924 -0.952,-2.644 -0.632,-0.72 -1.496,-1.076 -2.588,-1.076 z"
       id="path6145"
       inkscape:connector-curvature="0" /><path
       style="fill:#fdfeff"
       d="m 95.204,299.808 v -7.888 h 17.784 v 4.156 l -9.968,20.46 h -5.988 l 9.508,-19.9 h -6.2 v 3.168 h -5.136 z"
       id="path6147"
       inkscape:connector-curvature="0" /><path
       style="fill:#fdfeff"
       d="m 157.016,293.432 c 1.632,-1.292 3.668,-1.936 6.112,-1.936 2.444,0 4.472,0.644 6.092,1.936 1.62,1.292 2.428,2.884 2.428,4.772 0,1.888 -0.728,3.516 -2.184,4.876 2.04,1.572 3.064,3.64 3.064,6.2 0,2.16 -0.868,3.976 -2.608,5.456 -1.74,1.48 -4.004,2.22 -6.796,2.22 -2.796,0 -5.06,-0.74 -6.796,-2.22 -1.74,-1.48 -2.608,-3.3 -2.608,-5.456 0,-2.56 1.02,-4.624 3.064,-6.2 -1.48,-1.384 -2.22,-3.016 -2.22,-4.896 0.004,-1.872 0.816,-3.456 2.452,-4.752 z m 3.432,18.12 c 0.82,0.552 1.712,0.828 2.676,0.828 0.964,0 1.856,-0.276 2.676,-0.828 0.82,-0.552 1.232,-1.356 1.232,-2.412 0,-1.056 -0.4,-1.864 -1.196,-2.432 -0.8,-0.56 -1.704,-0.844 -2.712,-0.844 -1.012,0 -1.916,0.28 -2.712,0.844 -0.8,0.564 -1.196,1.376 -1.196,2.432 0,1.056 0.408,1.86 1.232,2.412 z m 0.336,-10.76 c 0.668,0.564 1.448,0.844 2.34,0.844 0.892,0 1.672,-0.28 2.34,-0.844 0.668,-0.56 1.004,-1.26 1.004,-2.096 0,-0.836 -0.328,-1.532 -0.988,-2.096 -0.656,-0.564 -1.444,-0.844 -2.36,-0.844 -0.916,0 -1.704,0.28 -2.36,0.844 -0.656,0.56 -0.984,1.26 -0.984,2.096 0.004,0.836 0.336,1.536 1.008,2.096 z"
       id="path6149"
       inkscape:connector-curvature="0" /><path
       style="fill:#fdfeff"
       d="m 220.832,312.24 c 1.528,0 2.708,-0.512 3.54,-1.532 0.832,-1.02 1.344,-2.412 1.532,-4.172 -1.5,1.008 -3.124,1.512 -4.86,1.512 -2.3,0 -4.22,-0.756 -5.756,-2.268 -1.54,-1.516 -2.308,-3.516 -2.308,-6.004 0,-2.488 0.828,-4.492 2.484,-6.004 1.656,-1.516 3.736,-2.272 6.252,-2.272 1.736,0 3.244,0.336 4.524,1.004 1.28,0.672 2.284,1.604 3.012,2.8 1.384,2.324 2.076,5.236 2.076,8.736 0,2.252 -0.276,4.232 -0.828,5.932 -0.552,1.704 -1.3,3.048 -2.236,4.032 -1.924,1.972 -4.26,2.956 -7.008,2.956 -1.152,0 -2.256,-0.168 -3.312,-0.512 -1.056,-0.34 -1.856,-0.68 -2.396,-1.02 -0.54,-0.34 -1.164,-0.78 -1.868,-1.32 l 2.748,-3.876 c 0.164,0.14 0.384,0.324 0.652,0.548 0.268,0.224 0.792,0.52 1.568,0.896 0.776,0.376 1.504,0.564 2.184,0.564 z m 0.76,-8.876 c 1.092,0 2,-0.316 2.728,-0.952 0.728,-0.632 1.092,-1.468 1.092,-2.5 0,-1.032 -0.352,-1.924 -1.056,-2.676 -0.704,-0.752 -1.584,-1.128 -2.64,-1.128 -1.056,0 -1.92,0.336 -2.588,1.004 -0.668,0.668 -1.004,1.52 -1.004,2.552 0,1.032 0.304,1.908 0.916,2.624 0.608,0.716 1.46,1.076 2.552,1.076 z"
       id="path6151"
       inkscape:connector-curvature="0" /></g><g
     id="g6161"
     transform="translate(-43.269861,-128.35811)"><path
       style="fill:#d2d2d4"
       d="M 443.32,272.384 H 301.58 c -3.832,0 -6.936,3.104 -6.936,6.936 v 39.088 c 0,3.832 3.104,6.936 6.936,6.936 h 141.74 c 3.832,0 6.936,-3.104 6.936,-6.936 V 279.32 c 0,-3.832 -3.104,-6.936 -6.936,-6.936 z"
       id="path6155"
       inkscape:connector-curvature="0" /><path
       style="fill:#d2d2d4"
       d="M 443.32,340.776 H 301.58 c -3.832,0 -6.936,3.104 -6.936,6.936 V 386.8 c 0,3.832 3.104,6.936 6.936,6.936 h 141.74 c 3.832,0 6.936,-3.104 6.936,-6.936 v -39.088 c 0,-3.832 -3.104,-6.936 -6.936,-6.936 z"
       id="path6157"
       inkscape:connector-curvature="0" /><path
       style="fill:#d2d2d4"
       d="M 443.32,409.168 H 301.58 c -3.832,0 -6.936,3.104 -6.936,6.936 v 39.088 c 0,3.832 3.104,6.936 6.936,6.936 h 141.74 c 3.832,0 6.936,-3.104 6.936,-6.936 v -39.088 c 0,-3.828 -3.104,-6.936 -6.936,-6.936 z"
       id="path6159"
       inkscape:connector-curvature="0" /></g><path
     style="fill:#a72549;fill-opacity:1"
     d="m 396.05013,140.02589 h -141.74 c -3.832,0 -6.936,3.104 -6.936,6.936 v 39.088 c 0,3.832 3.104,6.936 6.936,6.936 h 141.74 c 3.832,0 6.936,-3.104 6.936,-6.936 v -39.088 c 0,-3.832 -3.104,-6.936 -6.936,-6.936 z"
     id="path6163"
     inkscape:connector-curvature="0" /><g
     id="g6169"
     transform="translate(-43.269861,-128.35811)"><path
       style="fill:#656d7a"
       d="M 439.32,336.776 H 297.58 c -3.832,0 -6.936,3.104 -6.936,6.936 V 382.8 c 0,3.832 3.104,6.936 6.936,6.936 h 141.74 c 3.832,0 6.936,-3.104 6.936,-6.936 v -39.088 c 0,-3.832 -3.104,-6.936 -6.936,-6.936 z"
       id="path6165"
       inkscape:connector-curvature="0" /><path
       style="fill:#656d7a"
       d="M 439.32,405.168 H 297.58 c -3.832,0 -6.936,3.104 -6.936,6.936 v 39.088 c 0,3.832 3.104,6.936 6.936,6.936 h 141.74 c 3.832,0 6.936,-3.104 6.936,-6.936 v -39.088 c 0,-3.828 -3.104,-6.936 -6.936,-6.936 z"
       id="path6167"
       inkscape:connector-curvature="0" /></g><g
     id="g6179"
     transform="translate(-43.269861,-128.35811)"><path
       style="fill:#fdfeff"
       d="m 368.452,445.524 c -3.712,0 -6.488,-1.26 -8.328,-3.78 -1.844,-2.52 -2.764,-5.884 -2.764,-10.092 0,-4.208 0.92,-7.572 2.764,-10.092 1.84,-2.516 4.616,-3.78 8.328,-3.78 3.708,0 6.484,1.26 8.328,3.78 1.84,2.52 2.764,5.888 2.764,10.092 0,4.208 -0.92,7.572 -2.764,10.092 -1.844,2.52 -4.62,3.78 -8.328,3.78 z m -3.952,-20.34 c -0.844,1.636 -1.268,3.796 -1.268,6.484 0,2.688 0.424,4.852 1.268,6.488 0.844,1.636 2.164,2.456 3.952,2.456 1.788,0 3.108,-0.82 3.952,-2.456 0.844,-1.636 1.268,-3.8 1.268,-6.488 0,-2.688 -0.42,-4.848 -1.268,-6.484 -0.844,-1.636 -2.164,-2.456 -3.952,-2.456 -1.792,0 -3.108,0.82 -3.952,2.456 z"
       id="path6171"
       inkscape:connector-curvature="0" /><path
       style="fill:#fdfeff"
       d="m 366.508,287.192 c 0,1.544 -0.548,2.844 -1.648,3.908 -1.1,1.06 -2.48,1.592 -4.14,1.592 -1.664,0 -3.044,-0.536 -4.14,-1.608 -1.1,-1.072 -1.648,-2.376 -1.648,-3.908 0,-1.532 0.548,-2.832 1.648,-3.908 1.1,-1.068 2.48,-1.608 4.14,-1.608 1.66,0 3.04,0.536 4.14,1.608 1.1,1.068 1.648,2.38 1.648,3.924 z m 15.072,-6.2 -19.664,27.432 h -6.752 l 19.7,-27.432 z m -22.036,7.592 c 0.3,0.356 0.688,0.532 1.156,0.532 0.468,0 0.864,-0.176 1.176,-0.532 0.312,-0.352 0.472,-0.816 0.472,-1.392 0,-0.576 -0.16,-1.052 -0.472,-1.432 -0.316,-0.38 -0.7,-0.568 -1.156,-0.568 -0.46,0 -0.844,0.188 -1.156,0.568 -0.316,0.38 -0.472,0.856 -0.472,1.432 0,0.576 0.148,1.04 0.452,1.392 z m 22.428,14.66 c 0,1.544 -0.548,2.844 -1.648,3.908 -1.1,1.056 -2.48,1.588 -4.14,1.588 -1.664,0 -3.044,-0.536 -4.14,-1.608 -1.1,-1.068 -1.648,-2.372 -1.648,-3.904 0,-1.528 0.548,-2.832 1.648,-3.908 1.1,-1.072 2.48,-1.608 4.14,-1.608 1.66,0 3.04,0.536 4.14,1.608 1.1,1.072 1.648,2.38 1.648,3.924 z m -6.968,1.392 c 0.3,0.356 0.688,0.532 1.156,0.532 0.472,0 0.864,-0.176 1.18,-0.532 0.312,-0.352 0.472,-0.816 0.472,-1.392 0,-0.576 -0.16,-1.052 -0.472,-1.436 -0.316,-0.376 -0.7,-0.568 -1.156,-0.568 -0.46,0 -0.844,0.192 -1.156,0.568 -0.316,0.38 -0.472,0.86 -0.472,1.436 -0.004,0.572 0.148,1.04 0.448,1.392 z"
       id="path6173"
       inkscape:connector-curvature="0" /><path
       style="fill:#fdfeff"
       d="m 355.212,377.128 c -3.712,0 -6.488,-1.26 -8.328,-3.78 -1.844,-2.52 -2.764,-5.884 -2.764,-10.092 0,-4.208 0.92,-7.572 2.764,-10.092 1.84,-2.516 4.616,-3.78 8.328,-3.78 3.708,0 6.484,1.26 8.328,3.78 1.84,2.52 2.764,5.888 2.764,10.092 0,4.208 -0.92,7.572 -2.764,10.092 -1.844,2.524 -4.62,3.78 -8.328,3.78 z m -3.952,-20.336 c -0.844,1.636 -1.268,3.796 -1.268,6.484 0,2.688 0.424,4.852 1.268,6.488 0.844,1.636 2.164,2.456 3.952,2.456 1.788,0 3.108,-0.82 3.952,-2.456 0.844,-1.636 1.268,-3.8 1.268,-6.488 0,-2.688 -0.42,-4.848 -1.268,-6.484 -0.844,-1.636 -2.164,-2.456 -3.952,-2.456 -1.792,-0.004 -3.108,0.82 -3.952,2.456 z"
       id="path6175"
       inkscape:connector-curvature="0" /><path
       style="fill:#fdfeff"
       d="m 381.692,377.128 c -3.712,0 -6.488,-1.26 -8.328,-3.78 -1.844,-2.52 -2.764,-5.884 -2.764,-10.092 0,-4.208 0.92,-7.572 2.764,-10.092 1.84,-2.516 4.616,-3.78 8.328,-3.78 3.708,0 6.484,1.26 8.328,3.78 1.84,2.52 2.764,5.888 2.764,10.092 0,4.208 -0.92,7.572 -2.764,10.092 -1.844,2.524 -4.62,3.78 -8.328,3.78 z m -3.956,-20.336 c -0.844,1.636 -1.268,3.796 -1.268,6.484 0,2.688 0.424,4.852 1.268,6.488 0.844,1.636 2.164,2.456 3.952,2.456 1.788,0 3.108,-0.82 3.952,-2.456 0.844,-1.636 1.268,-3.8 1.268,-6.488 0,-2.688 -0.42,-4.848 -1.268,-6.484 -0.844,-1.636 -2.164,-2.456 -3.952,-2.456 -1.788,-0.004 -3.104,0.82 -3.952,2.456 z"
       id="path6177"
       inkscape:connector-curvature="0" /></g><rect
     x="224.70213"
     y="110.26587"
     style="fill:#d2d2d4"
     width="4.8400002"
     height="241.72"
     id="rect6181" /><path
     style="fill:#a72549;fill-opacity:1"
     d="M 17.949219 1.2695312 C 10.457219 1.2695312 4.3828125 7.3458906 4.3828125 14.837891 L 4.3828125 113.21484 L 421.07812 113.21484 L 421.07812 14.837891 C 421.07812 7.3458906 415.00177 1.2695313 407.50977 1.2695312 L 17.949219 1.2695312 z M 247.37109 26.746094 L 402.98242 26.746094 L 402.98242 93.806641 L 247.37109 93.806641 L 247.37109 26.746094 z "
     id="path6183" /><rect
     x="22.474144"
     y="71.569893"
     style="fill:#871e3b;fill-opacity:1"
     width="169.944"
     height="22.236"
     id="rect6187" /><rect
     x="224.70213"
     y="1.2698975"
     style="fill:#871e3b;fill-opacity:1"
     width="4.8400002"
     height="111.944"
     id="rect6203" /><g
     id="g6205"
     transform="translate(0,-160)" /><g
     id="g6207"
     transform="translate(0,-160)" /><g
     id="g6209"
     transform="translate(0,-160)" /><g
     id="g6211"
     transform="translate(0,-160)" /><g
     id="g6213"
     transform="translate(0,-160)" /><g
     id="g6215"
     transform="translate(0,-160)" /><g
     id="g6217"
     transform="translate(0,-160)" /><g
     id="g6219"
     transform="translate(0,-160)" /><g
     id="g6221"
     transform="translate(0,-160)" /><g
     id="g6223"
     transform="translate(0,-160)" /><g
     id="g6225"
     transform="translate(0,-160)" /><g
     id="g6227"
     transform="translate(0,-160)" /><g
     id="g6229"
     transform="translate(0,-160)" /><g
     id="g6231"
     transform="translate(0,-160)" /><g
     id="g6233"
     transform="translate(0,-160)" /><g
     transform="matrix(0.83574913,0,0,0.83574913,-90.155805,-183.15076)"
     aria-label="ART &amp; DEV"
     style="font-style:normal;font-weight:normal;font-size:40px;line-height:1.25;font-family:sans-serif;letter-spacing:0px;word-spacing:0px;fill:#ffffff;fill-opacity:1;stroke:none"
     id="text240"><path
       inkscape:connector-curvature="0"
       d="m 157.72526,285.63672 -2.44,-5.2 h -11.6 l -2.64,5.2 h -6.28 l 14.28,-28.04 h 1.64 l 13.24,28.04 z m -11.16,-10.8 h 6.08 l -2.92,-6.24 z"
       style="font-style:normal;font-variant:normal;font-weight:normal;font-stretch:normal;font-family:JaapokkiRegular;-inkscape-font-specification:JaapokkiRegular;fill:#ffffff;fill-opacity:1"
       id="path1066" /><path
       inkscape:connector-curvature="0"
       d="m 186.33714,285.63672 h -5.96 l -5.24,-11.24 h -2.8 v 11.2 h -5.6 v -28.04 h 10.56 q 3.48,0 5.92,2.48 2.48,2.48 2.48,5.96 0,2.52 -1.36,4.6 -1.32,2.04 -3.56,3.04 z m -9.04,-22.48 h -4.96 v 5.64 h 4.96 q 1.16,0 1.96,-0.8 0.84,-0.84 0.84,-2 0,-1.16 -0.84,-2 -0.8,-0.84 -1.96,-0.84 z"
       style="font-style:normal;font-variant:normal;font-weight:normal;font-stretch:normal;font-family:JaapokkiRegular;-inkscape-font-specification:JaapokkiRegular;fill:#ffffff;fill-opacity:1"
       id="path1068" /><path
       inkscape:connector-curvature="0"
       d="m 187.55276,257.59672 h 21.16 v 5.6 h -7.76 v 22.44 h -5.6 v -22.44 h -7.8 z"
       style="font-style:normal;font-variant:normal;font-weight:normal;font-stretch:normal;font-family:JaapokkiRegular;-inkscape-font-specification:JaapokkiRegular;fill:#ffffff;fill-opacity:1"
       id="path1070" /><path
       inkscape:connector-curvature="0"
       d="m 239.98026,285.63672 -0.12,-2.28 q -0.72,1.28 -2.36,2.08 -1.64,0.76 -3.16,0.76 -4.12,0 -6.88,-2.2 -2.72,-2.24 -2.72,-6.32 0,-4.48 3.64,-7.16 -2.36,-2.24 -2.36,-5.68 0,-3.36 2.36,-5.48 2.4,-2.16 5.88,-2.16 3.48,0 5.88,2.12 2.4,2.12 2.4,5.52 h -4.6 q 0,-1.56 -1.12,-2.28 -1.08,-0.76 -2.56,-0.76 -1.48,0 -2.56,0.84 -1.08,0.8 -1.08,2.2 0,1.6 1.28,2.68 1.32,1.08 3.04,1.48 1.76,0.36 3.84,0.36 v 4.16 q -2.32,0 -5.48,-0.68 -1.36,0.52 -2.24,1.16 -0.88,0.6 -1.24,1.32 -0.32,0.72 -0.4,1.2 -0.08,0.48 -0.08,1.16 0,1.96 1.32,3.04 1.32,1.04 3.68,1.04 2.24,0 3.88,-1.44 1.64,-1.48 1.64,-3.04 v -2.4 h 4.6 v 10.76 z"
       style="font-style:normal;font-variant:normal;font-weight:normal;font-stretch:normal;font-family:JaapokkiRegular;-inkscape-font-specification:JaapokkiRegular;fill:#ffffff;fill-opacity:1"
       id="path1072" /><path
       inkscape:connector-curvature="0"
       d="m 261.12151,257.59672 h 7.92 q 2.84,0 5.44,1.08 2.52,1.08 4.44,3 2,2 3,4.48 1.12,2.52 1.12,5.44 0,2.96 -1.12,5.48 -1,2.52 -3,4.44 -2.04,2.04 -4.44,3 -2.52,1.12 -5.44,1.12 h -5.64 v -0.04 h -2.28 z m 5.6,22.44 h 2.32 q 3.48,0 5.92,-2.48 2.48,-2.48 2.48,-5.96 0,-3.48 -2.48,-5.92 -2.44,-2.48 -5.92,-2.48 h -2.32 z"
       style="font-style:normal;font-variant:normal;font-weight:normal;font-stretch:normal;font-family:JaapokkiRegular;-inkscape-font-specification:JaapokkiRegular;fill:#ffffff;fill-opacity:1"
       id="path1074" /><path
       inkscape:connector-curvature="0"
       d="m 306.12964,257.59672 v 5.6 h -13.08 v 5.16 h 10.8 v 5.6 h -10.8 v 6.08 h 12.96 v 5.6 h -18.56 v -28.04 z"
       style="font-style:normal;font-variant:normal;font-weight:normal;font-stretch:normal;font-family:JaapokkiRegular;-inkscape-font-specification:JaapokkiRegular;fill:#ffffff;fill-opacity:1"
       id="path1076" /><path
       inkscape:connector-curvature="0"
       d="m 323.55339,285.63672 h -1.68 l -12.68,-28.04 h 6.2 l 7.32,15.92 7.28,-15.92 h 6.2 z"
       style="font-style:normal;font-variant:normal;font-weight:normal;font-stretch:normal;font-family:JaapokkiRegular;-inkscape-font-specification:JaapokkiRegular;fill:#ffffff;fill-opacity:1"
       id="path1078" /></g></svg>