<?xml version="1.0" encoding="UTF-8" standalone="no"?>
<!-- Generator: Adobe Illustrator 19.0.0, SVG Export Plug-In . SVG Version: 6.00 Build 0)  -->

<svg
   xmlns:dc="http://purl.org/dc/elements/1.1/"
   xmlns:cc="http://creativecommons.org/ns#"
   xmlns:rdf="http://www.w3.org/1999/02/22-rdf-syntax-ns#"
   xmlns:svg="http://www.w3.org/2000/svg"
   xmlns="http://www.w3.org/2000/svg"
   xmlns:sodipodi="http://sodipodi.sourceforge.net/DTD/sodipodi-0.dtd"
   xmlns:inkscape="http://www.inkscape.org/namespaces/inkscape"
   version="1.1"
   id="Layer_1"
   x="0px"
   y="0px"
   viewBox="0 0 538 377"
   xml:space="preserve"
   sodipodi:docname="responsive.svg"
   width="538"
   height="377"
   inkscape:version="0.92.2 (unknown)"><metadata
     id="metadata1624"><rdf:RDF><cc:Work
         rdf:about=""><dc:format>image/svg+xml</dc:format><dc:type
           rdf:resource="http://purl.org/dc/dcmitype/StillImage" /><dc:title></dc:title></cc:Work></rdf:RDF></metadata><defs
     id="defs1622" /><sodipodi:namedview
     pagecolor="#ffffff"
     bordercolor="#666666"
     borderopacity="1"
     objecttolerance="10"
     gridtolerance="10"
     guidetolerance="10"
     inkscape:pageopacity="0"
     inkscape:pageshadow="2"
     inkscape:window-width="1855"
     inkscape:window-height="1176"
     id="namedview1620"
     showgrid="false"
     inkscape:zoom="5.2149125"
     inkscape:cx="266.626"
     inkscape:cy="97.60462"
     inkscape:window-x="65"
     inkscape:window-y="24"
     inkscape:window-maximized="1"
     inkscape:current-layer="g1587" /><g
     id="g1587"
     transform="translate(0,-135)"><g
       id="g1447"><g
         id="g1373"
         transform="translate(3.0681243,81.970998)"><path
           style="fill:#e2e5e7"
           d="m 453.491,357.6 c 0,6.329 -5.129,11.458 -11.459,11.458 H 11.459 C 5.13,369.058 0,363.928 0,357.6 V 68.098 C 0,61.772 5.13,56.64 11.459,56.64 h 430.573 c 6.33,0 11.459,5.133 11.459,11.458 z"
           id="path1371"
           inkscape:connector-curvature="0" /></g><g
         id="g1377"
         transform="translate(3.0681243,81.970998)"><path
           style="fill:#d1d5d5"
           d="M 278.177,369.059 H 226.744 175.31 c 0,0 -2.083,34.374 -6.25,41.664 h 57.684 57.683 c -4.166,-7.291 -6.25,-41.664 -6.25,-41.664 z"
           id="path1375"
           inkscape:connector-curvature="0" /></g><g
         id="g1381"
         transform="translate(3.0681243,81.970998)"><path
           style="fill:#c6cbcb"
           d="m 294.062,413.587 c -6.25,-0.782 -9.635,-2.865 -9.635,-2.865 H 226.744 169.06 c 0,0 -3.384,2.083 -9.634,2.865 -6.249,0.783 -10.416,1.302 -10.416,4.428 h 77.733 77.733 c 0.002,-3.126 -4.165,-3.644 -10.414,-4.428 z"
           id="path1379"
           inkscape:connector-curvature="0" /></g><g
         id="g1385"
         transform="translate(3.0681243,81.970998)"><path
           style="fill:#838383;fill-opacity:1"
           d="M 442.032,56.64 H 11.459 C 5.13,56.64 0,61.772 0,68.098 V 328.09 H 453.491 V 68.098 c 0,-6.326 -5.129,-11.458 -11.459,-11.458 z m -7.311,255.165 H 207.139 18.768 V 72.926 h 334.434 81.52 z"
           id="path1383"
           inkscape:connector-curvature="0" /></g><g
         id="g1389"
         transform="translate(3.0681243,81.970998)"><polygon
           style="fill:#e2e5e7"
           points="18.768,72.926 18.768,311.805 207.139,311.805 434.721,311.805 434.721,72.926 353.202,72.926 "
           id="polygon1387" /></g><g
         id="g1393"
         transform="translate(3.0681243,81.970998)"><path
           style="fill:#c6cbcb"
           d="M 278.177,369.059 H 226.744 175.31 c 0,0 -0.31,5.113 -0.929,11.808 h 104.726 c -0.619,-6.696 -0.93,-11.808 -0.93,-11.808 z"
           id="path1391"
           inkscape:connector-curvature="0" /></g><g
         id="g1397"
         transform="translate(3.0681243,81.970998)"><circle
           style="fill:#2d404e"
           cx="226.804"
           cy="349.53601"
           r="7.4510002"
           id="circle1395" /></g><rect
         x="41.962124"
         y="206.24911"
         style="fill:#d1d5d5"
         width="376.81799"
         height="84"
         id="rect1399" /><rect
         x="41.962124"
         y="307.63513"
         style="fill:#d1d5d5"
         width="57.587002"
         height="57.585999"
         id="rect1401" /><rect
         x="121.77113"
         y="307.63513"
         style="fill:#d1d5d5"
         width="57.585999"
         height="57.585999"
         id="rect1403" /><rect
         x="201.57913"
         y="307.63513"
         style="fill:#d1d5d5"
         width="57.585999"
         height="57.585999"
         id="rect1405" /><rect
         x="281.38611"
         y="307.63513"
         style="fill:#d1d5d5"
         width="57.585999"
         height="57.585999"
         id="rect1407" /><rect
         x="361.19513"
         y="307.63513"
         style="fill:#d1d5d5"
         width="57.585999"
         height="57.585999"
         id="rect1409" /><g
         id="g1427"
         transform="translate(3.0681243,81.970998)"><g
           id="g1413"><rect
             x="107.534"
             y="225.664"
             style="fill:#d1d5d5"
             width="2.016"
             height="57.585999"
             id="rect1411" /></g><g
           id="g1417"><rect
             x="186.83299"
             y="225.664"
             style="fill:#d1d5d5"
             width="2.017"
             height="57.585999"
             id="rect1415" /></g><g
           id="g1421"><rect
             x="266.13199"
             y="225.664"
             style="fill:#d1d5d5"
             width="2.016"
             height="57.585999"
             id="rect1419" /></g><g
           id="g1425"><rect
             x="345.42999"
             y="225.664"
             style="fill:#d1d5d5"
             width="2.017"
             height="57.585999"
             id="rect1423" /></g></g><path
         style="fill:#d1d5d5"
         d="m 382.60812,376.83899 c 0,1.479 -1.198,2.67701 -2.676,2.67701 H 79.695124 c -1.479,0 -2.677,-1.198 -2.677,-2.67701 v 0 c 0,-1.478 1.198,-2.675 2.677,-2.675 H 379.93212 c 1.477,10e-4 2.676,1.198 2.676,2.675 z"
         id="path1429"
         inkscape:connector-curvature="0" /><path
         style="fill:#a72549;fill-opacity:1"
         d="m 100.35412,181.96599 c 0,2.042 -1.655996,3.696 -3.695996,3.696 h -51 c -2.04,0 -3.695,-1.654 -3.695,-3.696 v 0 c 0,-2.04 1.655,-3.695 3.695,-3.695 h 51 c 2.04,0 3.695996,1.655 3.695996,3.695 z"
         id="path1431"
         inkscape:connector-curvature="0" /><path
         style="fill:#d1d5d5"
         d="m 100.35412,192.04599 c 0,1.021 -1.655996,1.848 -3.695996,1.848 h -51 c -2.04,0 -3.695,-0.82599 -3.695,-1.848 v 0 c 0,-1.02 1.655,-1.846 3.695,-1.846 h 51 c 2.04,-0.001 3.695996,0.825 3.695996,1.846 z"
         id="path1433"
         inkscape:connector-curvature="0" /><path
         style="fill:#d1d5d5"
         d="m 385.76812,181.96599 c 0,2.042 -1.655,3.696 -3.697,3.696 h -11.134 c -2.041,0 -3.697,-1.654 -3.697,-3.696 v 0 c 0,-2.04 1.656,-3.695 3.697,-3.695 h 11.134 c 2.042,0 3.697,1.655 3.697,3.695 z"
         id="path1435"
         inkscape:connector-curvature="0" /><path
         style="fill:#d1d5d5"
         d="m 352.75412,181.96599 c 0,2.042 -1.654,3.696 -3.696,3.696 h -11.135 c -2.041,0 -3.696,-1.654 -3.696,-3.696 v 0 c 0,-2.04 1.655,-3.695 3.696,-3.695 h 11.135 c 2.042,0 3.696,1.655 3.696,3.695 z"
         id="path1437"
         inkscape:connector-curvature="0" /><path
         style="fill:#d1d5d5"
         d="m 319.74012,181.96599 c 0,2.042 -1.654,3.696 -3.696,3.696 h -11.135 c -2.04,0 -3.696,-1.654 -3.696,-3.696 v 0 c 0,-2.04 1.656,-3.695 3.696,-3.695 h 11.135 c 2.042,0 3.696,1.655 3.696,3.695 z"
         id="path1439"
         inkscape:connector-curvature="0" /><path
         style="fill:#d1d5d5"
         d="m 286.72812,181.96599 c 0,2.042 -1.655,3.696 -3.696,3.696 h -11.135 c -2.041,0 -3.696,-1.654 -3.696,-3.696 v 0 c 0,-2.04 1.655,-3.695 3.696,-3.695 h 11.135 c 2.041,0 3.696,1.655 3.696,3.695 z"
         id="path1441"
         inkscape:connector-curvature="0" /><path
         style="fill:#a72549;fill-opacity:1"
         d="m 405.65012,179.49499 c 0,0 0.624,-3.906 4,-3.906 3.378,0 4.003,3.906 4.003,3.906 0,0 5.128,-0.529 5.128,2.848 0,3.377 -5.253,2.626 -5.253,2.626 0,0 -1.376,3.377 -4.128,3.377 -2.751,0 -3.75,-3.62799 -3.75,-3.62799 0,0 -5.088,0.627 -5.088,-2.375 0,-3.00201 5.088,-2.84801 5.088,-2.84801 z"
         id="path1445"
         inkscape:connector-curvature="0" /></g><text
       xml:space="preserve"
       style="font-style:normal;font-variant:normal;font-weight:normal;font-stretch:normal;font-size:40px;line-height:1.25;font-family:JaapokkiRegular;-inkscape-font-specification:JaapokkiRegular;letter-spacing:0px;word-spacing:0px;fill:#a72549;fill-opacity:1;stroke:none"
       x="129.98338"
       y="264.75079"
       id="text5860"><tspan
         sodipodi:role="line"
         id="tspan5858"
         x="129.98338"
         y="264.75079">ART &amp; DEV</tspan></text>
<g
       style="opacity:0.21000001"
       id="g1451"
       transform="translate(3.0681243,28.278814)"><path
         style="fill:#e2e5e7"
         d="m 11.459,110.33218 c -6.329,0 -11.459,5.132 -11.459,11.458 v 259.992 h 111.028 l 188.55,-271.45 z"
         id="path1449"
         inkscape:connector-curvature="0" /></g><g
       id="g1503"
       transform="translate(23.237615,91.394727)"><g
         id="g1473"><g
           id="g1455"><path
             style="fill:#838383;fill-opacity:1"
             d="m 502.712,418.016 c 5.131,0 9.288,-3.524 9.288,-7.873 V 195.452 c 0,-4.349 -4.157,-7.875 -9.288,-7.875 H 328.713 c -5.13,0 -9.288,3.526 -9.288,7.875 v 214.691 c 0,4.349 4.158,7.873 9.288,7.873 z"
             id="path1453"
             inkscape:connector-curvature="0" /></g><g
           id="g1459"><rect
             x="340.16901"
             y="208.27699"
             style="fill:#e2e5e7"
             width="151.08701"
             height="189.03799"
             id="rect1457" /></g><g
           id="g1463"><circle
             style="fill:#c6cbcb"
             cx="415.71201"
             cy="407.22299"
             r="7"
             id="circle1461" /></g><g
           id="g1467"><circle
             style="fill:#d1d5d5"
             cx="415.71201"
             cy="407.22299"
             r="5.6090002"
             id="circle1465" /></g><g
           id="g1471"><circle
             style="fill:#e2e5e7"
             cx="415.71201"
             cy="407.22299"
             r="3.925"
             id="circle1469" /></g></g><rect
         x="347.44699"
         y="254.457"
         style="fill:#d1d5d5"
         width="137.396"
         height="62.409"
         id="rect1475" /><rect
         x="347.44699"
         y="327.32901"
         style="fill:#d1d5d5"
         width="57.587002"
         height="46.827999"
         id="rect1477" /><rect
         x="427.254"
         y="327.32901"
         style="fill:#d1d5d5"
         width="57.589001"
         height="46.827999"
         id="rect1479" /><g
         id="g1483"><rect
           x="416.08701"
           y="327.32901"
           style="fill:#d1d5d5"
           width="2.017"
           height="46.827999"
           id="rect1481" /></g><path
         style="fill:#d1d5d5"
         d="m 484.842,384.501 c 0,1.479 -0.539,2.677 -1.203,2.677 H 348.651 c -0.666,0 -1.204,-1.198 -1.204,-2.677 v 0 c 0,-1.478 0.538,-2.675 1.204,-2.675 h 134.988 c 0.664,10e-4 1.203,1.199 1.203,2.675 z"
         id="path1485"
         inkscape:connector-curvature="0" /><path
         style="fill:#a72549;fill-opacity:1"
         d="m 404.829,229.359 c 0,2.041 -1.653,3.695 -3.695,3.695 h -50.998 c -2.042,0 -3.696,-1.654 -3.696,-3.695 v 0 c 0,-2.041 1.654,-3.695 3.696,-3.695 h 50.998 c 2.041,0 3.695,1.654 3.695,3.695 z"
         id="path1487"
         inkscape:connector-curvature="0" /><path
         style="fill:#d1d5d5"
         d="m 404.829,239.438 c 0,1.021 -1.653,1.848 -3.695,1.848 h -50.998 c -2.042,0 -3.696,-0.827 -3.696,-1.848 v 0 c 0,-1.021 1.654,-1.847 3.696,-1.847 h 50.998 c 2.041,0 3.695,0.826 3.695,1.847 z"
         id="path1489"
         inkscape:connector-curvature="0" /><path
         style="fill:#d1d5d5"
         d="m 468.01,229.359 c 0,1.305 -1.655,2.362 -3.696,2.362 h -11.135 c -2.041,0 -3.696,-1.058 -3.696,-2.362 v 0 c 0,-1.305 1.655,-2.362 3.696,-2.362 h 11.135 c 2.041,0 3.696,1.057 3.696,2.362 z"
         id="path1491"
         inkscape:connector-curvature="0" /><path
         style="fill:#d1d5d5"
         d="m 444.153,229.359 c 0,1.305 -1.654,2.362 -3.696,2.362 h -11.135 c -2.041,0 -3.696,-1.058 -3.696,-2.362 v 0 c 0,-1.305 1.655,-2.362 3.696,-2.362 h 11.135 c 2.042,0 3.696,1.057 3.696,2.362 z"
         id="path1493"
         inkscape:connector-curvature="0" /><g
         style="opacity:0.22000002"
         id="g1497"
         transform="translate(-8.5729351,-46.901226)"><path
           style="fill:#e2e5e7"
           d="m 327.86134,242.2399 c 0,-4.349 4.158,-7.875 9.288,-7.875 h 173.999 c 5.131,0 9.288,3.526 9.288,7.875 v 24.885 l -192.575,145.764 z"
           id="path1495"
           inkscape:connector-curvature="0" /></g><path
         style="fill:#a72549;fill-opacity:1"
         d="m 475.348,227.776 c 0,0 0.4,-2.503 2.562,-2.503 2.164,0 2.564,2.503 2.564,2.503 0,0 3.284,-0.34 3.284,1.824 0,2.163 -3.364,1.682 -3.364,1.682 0,0 -0.882,2.163 -2.645,2.163 -1.762,0 -2.402,-2.324 -2.402,-2.324 0,0 -3.258,0.402 -3.258,-1.521 0,-1.923 3.259,-1.824 3.259,-1.824 z"
         id="path1501"
         inkscape:connector-curvature="0" /></g><g
       id="g1585"
       transform="translate(212.66312,54.584)"><g
         id="g1507" /><g
         id="g1511"><path
           style="fill:#838383;fill-opacity:1"
           d="m 120.915,443.956 c -0.001,6.3 -4.794,11.405 -10.702,11.405 l -66.233,-0.02 c -5.909,-0.002 -10.696,-5.113 -10.694,-11.413 l 0.039,-145.616 c 0.002,-6.301 4.794,-11.41 10.702,-11.406 l 66.233,0.021 c 5.907,0.002 10.698,5.11 10.695,11.413 z"
           id="path1509"
           inkscape:connector-curvature="0" /></g><g
         id="g1515"><rect
           x="38.911999"
           y="300.80499"
           style="fill:#e2e5e7"
           width="76.417999"
           height="130.396"
           id="rect1513" /></g><g
         id="g1519"><path
           style="fill:#586a73"
           d="m 89.568,294.525 c 0,0.901 -0.742,1.632 -1.657,1.63 l -21.542,-0.008 c -0.916,0 -1.656,-0.729 -1.656,-1.628 v 0 c 0,-0.902 0.742,-1.631 1.657,-1.631 l 21.541,0.006 c 0.915,0.002 1.657,0.73 1.657,1.631 z"
           id="path1517"
           inkscape:connector-curvature="0" /></g><g
         id="g1523"><path
           style="fill:#2d404e"
           d="m 88.922,295.816 c -0.279,0.213 -0.631,0.339 -1.012,0.339 l -21.542,-0.008 c -0.916,0 -1.656,-0.729 -1.656,-1.628 v 0 c 0,-0.902 0.742,-1.631 1.657,-1.631 0,0 -0.629,0.748 -0.375,1.631 0.255,0.884 2.802,0.95 3.949,0.95 1.147,0.002 18.979,0.347 18.979,0.347 z"
           id="path1521"
           inkscape:connector-curvature="0" /></g><g
         id="g1537"><g
           id="g1527"><ellipse
             style="fill:#c6cbcb"
             cx="77.056"
             cy="443.16299"
             rx="6.441"
             ry="6.8709998"
             id="ellipse1525" /></g><g
           id="g1531"><path
             style="fill:#d1d5d5"
             d="m 82.559,443.165 c 0,-3.242 -2.462,-5.869 -5.501,-5.869 -3.04,-0.002 -5.504,2.623 -5.505,5.865 0,3.241 2.462,5.867 5.502,5.867 3.039,0.005 5.503,-2.622 5.504,-5.863 z"
             id="path1529"
             inkscape:connector-curvature="0" /></g><g
           id="g1535"><ellipse
             style="fill:#e2e5e7"
             cx="77.056999"
             cy="443.16299"
             rx="4.2449999"
             ry="4.527"
             id="ellipse1533" /></g></g><g
         id="g1541"><path
           style="fill:#d1d5d5"
           d="m 90.855,285.765 12.922,0.004 c 0,0 0.67,-0.791 0.001,-1.92 l -12.923,-0.006 c 0,-0.001 -0.812,0.96 0,1.922 z"
           id="path1539"
           inkscape:connector-curvature="0" /></g><g
         id="g1545"><path
           style="fill:#e2e5e7"
           d="m 103.778,283.849 -12.923,-0.006 c 0,0 -0.604,0.717 -0.248,1.53 l 13.378,0.002 c 0.12,-0.34 0.179,-0.876 -0.207,-1.526 z"
           id="path1543"
           inkscape:connector-curvature="0" /></g><g
         id="g1549"><path
           style="fill:#e2e5e7"
           d="m 55.235,284.792 c 0,0.531 -1.344,0.961 -3.004,0.961 -1.659,0 -3.003,-0.432 -3.002,-0.961 -10e-4,-0.529 1.343,-0.961 3.003,-0.961 1.659,0.004 3.003,0.432 3.003,0.961 z"
           id="path1547"
           inkscape:connector-curvature="0" /></g><rect
         x="43.639999"
         y="348.81799"
         style="fill:#d1d5d5"
         width="64.665001"
         height="26.266001"
         id="rect1551" /><g
         id="g1561"><rect
           x="43.639999"
           y="381.461"
           style="fill:#d1d5d5"
           width="28.792999"
           height="28.792999"
           id="rect1553" /><rect
           x="79.512001"
           y="381.461"
           style="fill:#d1d5d5"
           width="28.792999"
           height="28.792999"
           id="rect1555" /><g
           id="g1559"><rect
             x="75.944"
             y="381.461"
             style="fill:#d1d5d5"
             width="1.008"
             height="28.792999"
             id="rect1557" /></g></g><path
         style="fill:#d1d5d5"
         d="m 108.16,417.775 c 0,1.332 -0.711,2.413 -1.589,2.413 H 45.228 c -0.877,0 -1.588,-1.081 -1.588,-2.413 v 0 c 0,-1.332 0.711,-2.412 1.588,-2.412 h 61.343 c 0.878,0 1.589,1.08 1.589,2.412 z"
         id="path1563"
         inkscape:connector-curvature="0" /><g
         id="g1569"><path
           style="fill:#a72549;fill-opacity:1"
           d="m 100.826,310.523 c 0,1.657 -1.344,3.002 -3.002,3.002 H 56.418 c -1.658,0 -3.001,-1.345 -3.001,-3.002 v 0 c 0,-1.656 1.343,-3.001 3.001,-3.001 h 41.406 c 1.658,0.001 3.002,1.346 3.002,3.001 z"
           id="path1565"
           inkscape:connector-curvature="0" /><path
           style="fill:#d1d5d5"
           d="m 100.826,318.707 c 0,0.829 -1.344,1.501 -3.002,1.501 H 56.418 c -1.658,0 -3.001,-0.672 -3.001,-1.501 v 0 c 0,-0.828 1.343,-1.499 3.001,-1.499 h 41.406 c 1.658,0 3.002,0.671 3.002,1.499 z"
           id="path1567"
           inkscape:connector-curvature="0" /></g><path
         style="fill:#d1d5d5"
         d="m 108.947,337.148 c 0,1.188 -1.453,2.149 -3.242,2.149 h -9.764 c -1.79,0 -3.242,-0.962 -3.242,-2.149 v 0 c 0,-1.187 1.452,-2.149 3.242,-2.149 h 9.764 c 1.789,0 3.242,0.963 3.242,2.149 z"
         id="path1571"
         inkscape:connector-curvature="0" /><path
         style="fill:#d1d5d5"
         d="m 84.418,337.148 c 0,1.188 -1.453,2.149 -3.243,2.149 h -9.763 c -1.791,0 -3.243,-0.962 -3.243,-2.149 v 0 c 0,-1.187 1.452,-2.149 3.243,-2.149 h 9.763 c 1.789,0 3.243,0.963 3.243,2.149 z"
         id="path1573"
         inkscape:connector-curvature="0" /><path
         style="fill:#d1d5d5"
         d="m 59.888,337.148 c 0,1.188 -1.452,2.149 -3.243,2.149 h -9.764 c -1.789,0 -3.241,-0.962 -3.241,-2.149 v 0 c 0,-1.187 1.452,-2.149 3.241,-2.149 h 9.764 c 1.791,0 3.243,0.963 3.243,2.149 z"
         id="path1575"
         inkscape:connector-curvature="0" /><path
         style="fill:#a72549;fill-opacity:1"
         d="m 74.086,325.928 c 0,0 0.293,-1.833 1.877,-1.833 1.585,0 1.879,1.833 1.879,1.833 0,0 2.405,-0.249 2.405,1.336 0,1.585 -2.465,1.232 -2.465,1.232 0,0 -0.646,1.584 -1.937,1.584 -1.291,0 -1.76,-1.702 -1.76,-1.702 0,0 -2.388,0.294 -2.388,-1.114 0,-1.408 2.389,-1.336 2.389,-1.336 z"
         id="path1583"
         inkscape:connector-curvature="0" /><g
         style="opacity:0.3"
         id="g1579"
         transform="translate(2.30109,-26.84609)"><path
           style="fill:#e2e5e7"
           d="m 118.65391,325.18409 c 0.003,-6.303 -4.788,-11.411 -10.695,-11.413 l -66.233003,-0.021 c -5.908,-0.004 -10.7,5.105 -10.702,11.406 l -0.031,117.036 87.661003,-114.499 z"
           id="path1577"
           inkscape:connector-curvature="0" /></g></g><text
       xml:space="preserve"
       style="font-style:normal;font-variant:normal;font-weight:normal;font-stretch:normal;font-size:7.98972416px;line-height:1.25;font-family:JaapokkiRegular;-inkscape-font-specification:JaapokkiRegular;letter-spacing:0px;word-spacing:0px;fill:#a72549;fill-opacity:1;stroke:none;stroke-width:0.19974312"
       x="267.66986"
       y="419.87173"
       id="text5860-0"><tspan
         sodipodi:role="line"
         id="tspan5858-1"
         x="267.66986"
         y="419.87173"
         style="stroke-width:0.19974312">ART &amp; DEV</tspan></text>
<text
       xml:space="preserve"
       style="font-style:normal;font-variant:normal;font-weight:normal;font-stretch:normal;font-size:19.39891434px;line-height:1.25;font-family:JaapokkiRegular;-inkscape-font-specification:JaapokkiRegular;letter-spacing:0px;word-spacing:0px;fill:#a72549;fill-opacity:1;stroke:none;stroke-width:0.48497286"
       x="390.28513"
       y="384.99847"
       id="text5860-2"><tspan
         sodipodi:role="line"
         id="tspan5858-0"
         x="390.28513"
         y="384.99847"
         style="stroke-width:0.48497286">ART &amp; DEV</tspan></text>
</g><g
     id="g1589"
     transform="translate(0,-135)" /><g
     id="g1591"
     transform="translate(0,-135)" /><g
     id="g1593"
     transform="translate(0,-135)" /><g
     id="g1595"
     transform="translate(0,-135)" /><g
     id="g1597"
     transform="translate(0,-135)" /><g
     id="g1599"
     transform="translate(0,-135)" /><g
     id="g1601"
     transform="translate(0,-135)" /><g
     id="g1603"
     transform="translate(0,-135)" /><g
     id="g1605"
     transform="translate(0,-135)" /><g
     id="g1607"
     transform="translate(0,-135)" /><g
     id="g1609"
     transform="translate(0,-135)" /><g
     id="g1611"
     transform="translate(0,-135)" /><g
     id="g1613"
     transform="translate(0,-135)" /><g
     id="g1615"
     transform="translate(0,-135)" /><g
     id="g1617"
     transform="translate(0,-135)" /></svg>