<?xml version="1.0" encoding="UTF-8" standalone="no"?>
<!-- Generator: Adobe Illustrator 19.0.0, SVG Export Plug-In . SVG Version: 6.00 Build 0)  -->

<svg
   xmlns:dc="http://purl.org/dc/elements/1.1/"
   xmlns:cc="http://creativecommons.org/ns#"
   xmlns:rdf="http://www.w3.org/1999/02/22-rdf-syntax-ns#"
   xmlns:svg="http://www.w3.org/2000/svg"
   xmlns="http://www.w3.org/2000/svg"
   xmlns:sodipodi="http://sodipodi.sourceforge.net/DTD/sodipodi-0.dtd"
   xmlns:inkscape="http://www.inkscape.org/namespaces/inkscape"
   version="1.1"
   id="Capa_1"
   x="0px"
   y="0px"
   viewBox="0 0 588 512"
   xml:space="preserve"
   sodipodi:docname="sketch.svg"
   width="588"
   height="512"
   inkscape:version="0.92.2 (unknown)"><metadata
     id="metadata236"><rdf:RDF><cc:Work
         rdf:about=""><dc:format>image/svg+xml</dc:format><dc:type
           rdf:resource="http://purl.org/dc/dcmitype/StillImage" /><dc:title></dc:title></cc:Work></rdf:RDF></metadata><defs
     id="defs234" /><sodipodi:namedview
     pagecolor="#ffffff"
     bordercolor="#666666"
     borderopacity="1"
     objecttolerance="10"
     gridtolerance="10"
     guidetolerance="10"
     inkscape:pageopacity="0"
     inkscape:pageshadow="2"
     inkscape:window-width="1855"
     inkscape:window-height="1176"
     id="namedview232"
     showgrid="false"
     showguides="false"
     inkscape:zoom="2.7676601"
     inkscape:cx="254.02922"
     inkscape:cy="159.83695"
     inkscape:window-x="65"
     inkscape:window-y="24"
     inkscape:window-maximized="1"
     inkscape:current-layer="Capa_1" /><path
     style="fill:#e0e0e2"
     d="M 469.149,104.457 H 0.037 c 0,0 0.401,279.419 0,294.88 -0.003,0.133 -0.003,0.266 0.001,0.398 0.403,14.877 6.498,28.798 17.161,39.2 10.688,10.424 24.796,16.166 39.729,16.166 H 304.71 c 1.993,0 3.905,-0.792 5.314,-2.2 l 164.44,-164.44 c 1.409,-1.41 2.2,-3.32 2.2,-5.314 V 111.971 c 0,-4.151 -3.365,-7.514 -7.515,-7.514 z"
     id="path151"
     inkscape:connector-curvature="0" /><g
     aria-label="ART &amp; DEV"
     style="font-style:normal;font-weight:normal;font-size:40px;line-height:1.25;font-family:sans-serif;letter-spacing:0px;word-spacing:0px;fill:#3c5156;fill-opacity:0.84736843;stroke:none"
     id="text240"><path
       d="m 157.72526,285.63672 -2.44,-5.2 h -11.6 l -2.64,5.2 h -6.28 l 14.28,-28.04 h 1.64 l 13.24,28.04 z m -11.16,-10.8 h 6.08 l -2.92,-6.24 z"
       style="font-style:normal;font-variant:normal;font-weight:normal;font-stretch:normal;font-family:JaapokkiRegular;-inkscape-font-specification:JaapokkiRegular;fill:#3c5156;fill-opacity:0.84736843"
       id="path1066" /><path
       d="m 186.33714,285.63672 h -5.96 l -5.24,-11.24 h -2.8 v 11.2 h -5.6 v -28.04 h 10.56 q 3.48,0 5.92,2.48 2.48,2.48 2.48,5.96 0,2.52 -1.36,4.6 -1.32,2.04 -3.56,3.04 z m -9.04,-22.48 h -4.96 v 5.64 h 4.96 q 1.16,0 1.96,-0.8 0.84,-0.84 0.84,-2 0,-1.16 -0.84,-2 -0.8,-0.84 -1.96,-0.84 z"
       style="font-style:normal;font-variant:normal;font-weight:normal;font-stretch:normal;font-family:JaapokkiRegular;-inkscape-font-specification:JaapokkiRegular;fill:#3c5156;fill-opacity:0.84736843"
       id="path1068" /><path
       d="m 187.55276,257.59672 h 21.16 v 5.6 h -7.76 v 22.44 h -5.6 v -22.44 h -7.8 z"
       style="font-style:normal;font-variant:normal;font-weight:normal;font-stretch:normal;font-family:JaapokkiRegular;-inkscape-font-specification:JaapokkiRegular;fill:#3c5156;fill-opacity:0.84736843"
       id="path1070" /><path
       d="m 239.98026,285.63672 -0.12,-2.28 q -0.72,1.28 -2.36,2.08 -1.64,0.76 -3.16,0.76 -4.12,0 -6.88,-2.2 -2.72,-2.24 -2.72,-6.32 0,-4.48 3.64,-7.16 -2.36,-2.24 -2.36,-5.68 0,-3.36 2.36,-5.48 2.4,-2.16 5.88,-2.16 3.48,0 5.88,2.12 2.4,2.12 2.4,5.52 h -4.6 q 0,-1.56 -1.12,-2.28 -1.08,-0.76 -2.56,-0.76 -1.48,0 -2.56,0.84 -1.08,0.8 -1.08,2.2 0,1.6 1.28,2.68 1.32,1.08 3.04,1.48 1.76,0.36 3.84,0.36 v 4.16 q -2.32,0 -5.48,-0.68 -1.36,0.52 -2.24,1.16 -0.88,0.6 -1.24,1.32 -0.32,0.72 -0.4,1.2 -0.08,0.48 -0.08,1.16 0,1.96 1.32,3.04 1.32,1.04 3.68,1.04 2.24,0 3.88,-1.44 1.64,-1.48 1.64,-3.04 v -2.4 h 4.6 v 10.76 z"
       style="font-style:normal;font-variant:normal;font-weight:normal;font-stretch:normal;font-family:JaapokkiRegular;-inkscape-font-specification:JaapokkiRegular;fill:#3c5156;fill-opacity:0.84736843"
       id="path1072" /><path
       d="m 261.12151,257.59672 h 7.92 q 2.84,0 5.44,1.08 2.52,1.08 4.44,3 2,2 3,4.48 1.12,2.52 1.12,5.44 0,2.96 -1.12,5.48 -1,2.52 -3,4.44 -2.04,2.04 -4.44,3 -2.52,1.12 -5.44,1.12 h -5.64 v -0.04 h -2.28 z m 5.6,22.44 h 2.32 q 3.48,0 5.92,-2.48 2.48,-2.48 2.48,-5.96 0,-3.48 -2.48,-5.92 -2.44,-2.48 -5.92,-2.48 h -2.32 z"
       style="font-style:normal;font-variant:normal;font-weight:normal;font-stretch:normal;font-family:JaapokkiRegular;-inkscape-font-specification:JaapokkiRegular;fill:#3c5156;fill-opacity:0.84736843"
       id="path1074" /><path
       d="m 306.12964,257.59672 v 5.6 h -13.08 v 5.16 h 10.8 v 5.6 h -10.8 v 6.08 h 12.96 v 5.6 h -18.56 v -28.04 z"
       style="font-style:normal;font-variant:normal;font-weight:normal;font-stretch:normal;font-family:JaapokkiRegular;-inkscape-font-specification:JaapokkiRegular;fill:#3c5156;fill-opacity:0.84736843"
       id="path1076" /><path
       d="m 323.55339,285.63672 h -1.68 l -12.68,-28.04 h 6.2 l 7.32,15.92 7.28,-15.92 h 6.2 z"
       style="font-style:normal;font-variant:normal;font-weight:normal;font-stretch:normal;font-family:JaapokkiRegular;-inkscape-font-specification:JaapokkiRegular;fill:#3c5156;fill-opacity:0.84736843"
       id="path1078" /></g><g
     id="g157"
     transform="translate(-0.16953,13.892)"><polygon
       style="fill:#c6c5ca;fill-opacity:0.74210522"
       points="310.518,104.457 282.463,104.457 163.236,223.683 135.96,300.952 166.668,300.952 191.291,223.683 "
       id="polygon153"
       transform="translate(127.23353,-13.796407)" /><path
       style="fill:#c6c5ca"
       d="M 469.149,104.457 H 444.1 v 214.367 l 30.363,-30.363 c 1.409,-1.41 2.2,-3.32 2.2,-5.314 V 111.971 c 10e-4,-4.151 -3.364,-7.514 -7.514,-7.514 z"
       id="path155"
       inkscape:connector-curvature="0" /></g><path
     style="fill:#3c5156"
     d="M 342.406,307.108 H 134.292 c -4.15,0 -7.515,-3.364 -7.515,-7.515 0,-4.151 3.365,-7.515 7.515,-7.515 h 208.114 c 4.151,0 7.515,3.364 7.515,7.515 0,4.151 -3.365,7.515 -7.515,7.515 z"
     id="path159"
     inkscape:connector-curvature="0" /><path
     style="fill:#919191"
     d="m 57.108,339.768 c 3.241,0 6.416,0.281 9.512,0.795 V 30.112 c 0,-4.151 -3.365,-7.515 -7.515,-7.515 C 26.515,22.597 0,49.111 0,81.702 v 307.793 c 3.871,-28.089 27.956,-49.727 57.108,-49.727 z"
     id="path161"
     inkscape:connector-curvature="0" /><path
     style="fill:#a72549;fill-opacity:1"
     d="M 535.016,97.38159 489.885,52.249593 c -1.41,-1.409 -3.321,-2.2 -5.314,-2.2 -1.993,0 -3.904,0.792 -5.314,2.2 L 313.041,218.46459 c -0.1,0.1 -0.189,0.207 -0.283,0.313 l 56.57,54.917 165.687,-165.685 c 2.936,-2.936 2.936,-7.693 10e-4,-10.628 z"
     id="path163"
     inkscape:connector-curvature="0" /><path
     style="fill:#8e2549;fill-opacity:1"
     d="m 348.683,253.65359 20.645,20.042 165.687,-165.685 c 2.935,-2.936 2.935,-7.693 0,-10.628 L 519.976,82.343593 Z"
     id="path165"
     inkscape:connector-curvature="0" /><path
     style="fill:#ffc89f"
     d="m 312.778,218.79659 c -0.665,0.731 -1.195,1.591 -1.535,2.553 l -24.598,69.683 c -0.963,2.729 -0.274,5.768 1.772,7.815 1.434,1.434 3.355,2.2 5.314,2.2 0.839,0 1.683,-0.14 2.501,-0.429 l 69.682,-24.598 c 1.341,-0.473 2.485,-1.317 3.348,-2.391 z"
     id="path167"
     inkscape:connector-curvature="0" /><path
     style="fill:#f7b081"
     d="m 293.732,301.04759 c 0.839,0 1.683,-0.14 2.501,-0.429 l 69.682,-24.598 c 1.341,-0.473 2.485,-1.317 3.348,-2.391 l -20.603,-20.001 -55.869,19.995 -6.145,17.407 c -0.963,2.729 -0.274,5.768 1.772,7.815 1.434,1.435 3.354,2.202 5.314,2.202 z"
     id="path169"
     inkscape:connector-curvature="0" /><path
     style="fill:#3c5156;stroke-width:1.00251746"
     d="m 293.69312,301.14759 c 0.83971,0 1.68441,-0.14059 2.5031,-0.4308 l 43.98078,-15.57716 -38.12188,-37.97586 -15.45293,43.92474 c -0.9638,2.74047 -0.27423,5.79223 1.77349,7.84783 1.4342,1.44103 3.3558,2.21125 5.31744,2.21125 z"
     id="path171"
     inkscape:connector-curvature="0" /><path
     style="fill:#304144"
     d="m 319.12,264.23563 -26.329,9.423 -6.145,17.407 c -0.963,2.729 -0.274,5.768 1.772,7.815 1.434,1.434 3.355,2.2 5.314,2.2 0.839,0 1.683,-0.14 2.501,-0.429 l 43.944,-15.512 z"
     id="path173"
     inkscape:connector-curvature="0" /><path
     style="fill:#2b3648;fill-opacity:1"
     d="m 559.433,72.963593 -45.132,-45.131 c -2.936,-2.934 -7.693,-2.934 -10.628,0 l -29.71,29.71 55.737,55.782997 29.733,-29.732997 c 1.409,-1.41 2.2,-3.32 2.2,-5.314 0,-1.993 -0.792,-3.904 -2.2,-5.315 z"
     id="path175"
     inkscape:connector-curvature="0" /><path
     style="fill:#222c48;fill-opacity:1"
     d="m 509.354,92.96359 7.061,7.066 13.29,13.29 29.728,-29.727997 c 1.409,-1.41 2.2,-3.32 2.2,-5.314 0,-1.993 -0.792,-3.904 -2.2,-5.314 l -15.039,-15.039 z"
     id="path177"
     inkscape:connector-curvature="0" /><path
     style="fill:#546f7a"
     d="m 579.638,30.980593 -23.355,-23.354 C 551.956,3.2995931 546.2,0.9165931 540.08,0.9165931 c -6.12,0 -11.875,2.383 -16.203,6.7099999 l -14.88,14.88 -5.326,5.326 -5.415,5.415 55.863,55.656997 7.978,-7.978997 17.54,-17.54 c 4.327,-4.327 6.71,-10.083 6.71,-16.203 0,-6.12 -2.382,-11.874 -6.709,-16.202 z"
     id="path179"
     inkscape:connector-curvature="0" /><g
     id="g185"
     transform="translate(-0.16953,13.892)"><polygon
       style="fill:#475d63"
       points="387.86,49.757 371.285,33.061 371.193,33.153 "
       id="polygon181" /><path
       style="fill:#475d63"
       d="m 579.80753,17.088593 -18.43,-18.4300002 c 3.014,4.006 4.668,8.859 4.668,13.9790002 0,6.188 -2.383,12.006 -6.71,16.383 l -17.54,17.735 -7.874,7.964 20.37,20.295 7.978,-7.979 17.54,-17.54 c 4.327,-4.327 6.71,-10.083 6.71,-16.203 0,-6.12 -2.385,-11.876 -6.712,-16.204 z"
       id="path183"
       inkscape:connector-curvature="0" /></g><path
     style="fill:#a72549;fill-opacity:1"
     d="m 507.361,240.868 c -2.808,-1.164 -6.04,-0.521 -8.19,1.628 L 243.317,498.35 c -2.149,2.15 -2.792,5.382 -1.629,8.19 1.163,2.808 3.904,4.639 6.943,4.639 h 255.855 c 4.15,0 7.515,-3.364 7.515,-7.515 V 247.811 c -10e-4,-3.039 -1.833,-5.781 -4.64,-6.943 z m -139.329,209.523 82.126,-82.126 v 82.126 z"
     id="path187"
     inkscape:connector-curvature="0" /><path
     style="fill:#8e2549;fill-opacity:1"
     d="m 507.361,240.868 c -2.808,-1.164 -6.04,-0.521 -8.19,1.628 l -19.736,19.736 V 511.18 h 25.049 c 4.15,0 7.515,-3.364 7.515,-7.515 V 247.811 c 10e-4,-3.039 -1.831,-5.781 -4.638,-6.943 z"
     id="path189"
     inkscape:connector-curvature="0" /><g
     id="g199"><path
       style="fill:#572549;fill-opacity:1"
       d="m 512,332.253 h -28.894 c -4.151,0 -7.515,3.364 -7.515,7.515 0,4.151 3.364,7.515 7.515,7.515 H 512 Z"
       id="path191"
       inkscape:connector-curvature="0" /><path
       style="fill:#572549;fill-opacity:1"
       d="m 512,369.929 h -28.894 c -4.151,0 -7.515,3.364 -7.515,7.515 0,4.151 3.364,7.515 7.515,7.515 H 512 Z"
       id="path193"
       inkscape:connector-curvature="0" /><path
       style="fill:#572549;fill-opacity:1"
       d="m 512,407.602 h -28.894 c -4.151,0 -7.515,3.364 -7.515,7.515 0,4.151 3.364,7.515 7.515,7.515 H 512 Z"
       id="path195"
       inkscape:connector-curvature="0" /><path
       style="fill:#572549;fill-opacity:1"
       d="m 512,445.278 h -28.894 c -4.151,0 -7.515,3.365 -7.515,7.515 0,4.151 3.364,7.515 7.515,7.515 H 512 Z"
       id="path197"
       inkscape:connector-curvature="0" /></g><g
     id="g201" /><g
     id="g203" /><g
     id="g205" /><g
     id="g207" /><g
     id="g209" /><g
     id="g211" /><g
     id="g213" /><g
     id="g215" /><g
     id="g217" /><g
     id="g219" /><g
     id="g221" /><g
     id="g223" /><g
     id="g225" /><g
     id="g227" /><g
     id="g229" /></svg>